<?xml version="1.0" encoding="utf-8"?>
<svg version="1.1" id="Layer_1" xmlns="http://www.w3.org/2000/svg" xmlns:xlink="http://www.w3.org/1999/xlink" x="0px" y="0px"
	 viewBox="0 0 1920 1080" style="enable-background:new 0 0 1920 1080;" xml:space="preserve">
<style type="text/css">
	.st0{fill:none;stroke:#1992C3;stroke-width:15;stroke-miterlimit:10;}
	.st1{fill:none;stroke:#1992C3;stroke-width:3.45;stroke-miterlimit:10;}
	.st2{fill:#683B45;stroke:#683B45;stroke-width:2.3;stroke-miterlimit:10;}
	.st3{fill:#CB835A;stroke:#CB835A;stroke-width:2.3;stroke-miterlimit:10;}
	.st4{fill:#55B5E3;stroke:#55B5E3;stroke-width:2.3;stroke-miterlimit:10;}
	.st5{fill:#84C3E5;stroke:#84C3E5;stroke-width:2.3;stroke-miterlimit:10;}
	.st6{fill:none;}
	.st7{enable-background:new    ;}
	.st8{fill:#1992C3;}
</style>
<circle class="st0" cx="482.3" cy="542.4" r="82"/>
<polyline class="st1" points="416.3,595.4 448.7,469.6 538.8,603.2 551.9,503.9 484.1,627 406.6,510.5 562.4,554.4 "/>
<circle class="st2" cx="435.5" cy="518.1" r="9.9"/>
<circle class="st3" cx="516.2" cy="567.9" r="9.2"/>
<ellipse transform="matrix(1.533014e-02 -0.9999 0.9999 1.533014e-02 -143.7545 1095.8246)" class="st4" cx="484.5" cy="620.9" rx="3.9" ry="4.1"/>
<circle class="st5" cx="546.5" cy="549.3" r="4.9"/>
<rect x="615.2" y="455.2" class="st6" width="943.8" height="339.2"/>
<g class="st7">
	<path class="st8" d="M635.4,624.5V459.3h3.6L749,586V459.3h16.3v165.2h-3.7l-109-125.1v125.1H635.4z"/>
	<path class="st8" d="M918.9,459.3l77,165.2h-17.8l-26-54.4H881l-25.7,54.4h-18.4l78.1-165.2H918.9z M916.9,494.4l-28.3,59.8H945
		L916.9,494.4z"/>
	<path class="st8" d="M1065.2,459.3h16.5v165.2h-16.5V459.3z"/>
	<path class="st8" d="M1166.5,459.3h32.9c18.3,0,30.8,0.8,37.3,2.2c9.8,2.2,17.8,7.1,23.9,14.4c6.1,7.4,9.2,16.5,9.2,27.3
		c0,9-2.1,16.9-6.3,23.7c-4.2,6.8-10.3,12-18.1,15.5c-7.9,3.5-18.7,5.3-32.6,5.3l59.4,76.7h-20.4l-59.4-76.7h-9.3v76.7h-16.5V459.3z
		 M1183,475.5v56.2l28.5,0.2c11,0,19.2-1,24.5-3.1c5.3-2.1,9.4-5.4,12.4-10.1s4.4-9.8,4.4-15.4c0-5.5-1.5-10.6-4.5-15.1
		c-3-4.5-6.9-7.8-11.8-9.7c-4.9-1.9-13-2.9-24.3-2.9H1183z"/>
	<path class="st8" d="M1429.8,455.2c25,0,46,8.3,62.8,25c16.9,16.7,25.3,37.2,25.3,61.7c0,24.2-8.4,44.7-25.2,61.5
		c-16.8,16.8-37.3,25.3-61.5,25.3c-24.5,0-45.2-8.4-62-25.2c-16.9-16.8-25.3-37.1-25.3-60.9c0-15.9,3.8-30.6,11.5-44.1
		c7.7-13.5,18.1-24.2,31.4-31.8C1400.1,459,1414.4,455.2,1429.8,455.2z M1430.6,471.2c-12.2,0-23.8,3.2-34.8,9.6
		c-11,6.4-19.5,14.9-25.6,25.7c-6.1,10.8-9.2,22.8-9.2,36.1c0,19.6,6.8,36.2,20.4,49.7c13.6,13.5,30,20.3,49.2,20.3
		c12.8,0,24.7-3.1,35.6-9.3s19.4-14.7,25.5-25.5c6.1-10.8,9.2-22.8,9.2-36c0-13.1-3.1-25-9.2-35.6c-6.1-10.6-14.7-19.1-25.8-25.5
		C1454.8,474.4,1443,471.2,1430.6,471.2z"/>
</g>
</svg>
