<?xml version="1.0" encoding="utf-8"?>
<!-- Generator: Adobe Illustrator 19.2.1, SVG Export Plug-In . SVG Version: 6.00 Build 0)  -->
<svg version="1.1" id="NodeTree" opacity="0.5" xmlns="http://www.w3.org/2000/svg" xmlns:xlink="http://www.w3.org/1999/xlink"
	 x="0px" y="0px" width="100%" height="100%" style="enable-background:new 0 0 1600 830;"
	 xml:space="preserve" preserveAspectRatio="xMinYMax meet">
<style type="text/css">
	.st0{fill:#ffffff;}
</style>
<symbol id="artwork00" viewBox="0 0 1600 830" preserveAspectRatio="xMidYMax slice">
	<path class="st0" d="M669.42,776.97c0.3,4.26-2.9,7.97-7.16,8.28c-0.09,0.01-0.18,0-0.27,0.01c0,1.71,0,3.8,0,6.35
	c0.01,7.78,0,19.81-0.01,38.4h-0.55c0.01-24.6,0.04-37.74,0.08-44.74c-3.69-0.09-6.82-2.8-7.44-6.45l-79.18,10.39
	c0.18,2.58-1.76,4.83-4.34,5.01c-0.02,0-0.04,0-0.06,0c0,1.38,0,3.16,0,5.45c0,5.16,0,12.92-0.01,24.57c0,1.82,0,3.75,0,5.76h-0.55
	c-0.01-17.61-0.01-27.59,0-33.25c0-0.97,0-1.82-0.01-2.55c-2.32-0.14-4.23-1.95-4.4-4.33c-0.19-2.59,1.76-4.84,4.35-5.02
	c2.39-0.18,4.48,1.49,4.92,3.8l79.21-10.4c-0.01-0.06-0.02-0.11-0.02-0.17c-0.3-4.26,2.9-7.97,7.16-8.28
	C665.4,769.5,669.11,772.71,669.42,776.97z M372.05,830c0.07-44.14,0.15-63.38,0.22-71.74c-0.42,0-0.85-0.03-1.29-0.12c0,0,0,0,0,0
	c-0.3-0.06-0.59-0.15-0.87-0.25l-3.26,7.97c0,11.36-0.01,25.43-0.02,42.88L359.51,830h-0.6l6.99-20.25L345.95,830h-0.8l19.3-19.61
	l-21.68,14.36l-2.14,5.24h-0.58l1.93-4.72l-7.12,4.72h-1.03l8.54-5.65l23.98-58.66c0.01-4.22,0.01-8.07,0.02-11.57
	c-0.02-0.05-0.04-0.1-0.05-0.14l-71.71,19.65l3.29,56.38h-0.57l-3.28-56.23l-2.93,0.8c0,3.4,0,7,0,10.8
	c2.26,1.25,3.51,3.89,2.87,6.53c-0.4,1.67-1.48,2.99-2.86,3.76c0,2.68,0,5.45,0,8.32l0.99,26.03h-0.57l-0.95-25.04L275.72,830h-0.66
	l15.49-26.09c0-2.74,0-5.4,0-7.98c-1.12,0.47-2.4,0.61-3.67,0.31c-3.16-0.76-5.1-3.95-4.34-7.11c0.76-3.16,3.95-5.1,7.11-4.34
	c0.32,0.08,0.62,0.18,0.91,0.3c0-3.64,0-7.09,0-10.37l-94.32,25.84L222.29,830h-0.64l-25.63-28.95c0.03,1.59,0.04,6.21,0.03,19.79
	l9.76,9.16h-0.79l-8.97-8.42c0,2.5,0,5.3-0.01,8.42h-0.49c0.01-3.3,0.01-6.25,0.02-8.86l-43.91-41.19l-43.06,5.39l8.89,18.07
	L150.15,830h-0.85l-31.25-25.43L130.57,830h-0.59l-12.9-26.23l-13.74-11.18c0.01,7.47,0.01,15.88,0.01,25.37l8.73,12.05h-0.64
	l-8.09-11.17c0,1.65,0,3.32,0,5.04l6.58,6.13h-0.83l-5.38-5.01l1.58,4.44l1.21,0.56h-1.62l-0.06-0.18l-0.75-0.35l0.07,0.53h-0.57
	l-0.11-0.81l-47.78-22.18L54.94,830h-0.57l0.76-23.25l-24.99-11.6c-0.01,0-0.01-0.01-0.02-0.01c-0.05-0.01-0.1-0.04-0.14-0.08
	c-0.01-0.01-0.01-0.02-0.02-0.03c-0.01-0.01-0.01-0.02-0.02-0.03c-0.01-0.02-0.03-0.03-0.03-0.05c0-0.01,0-0.02,0-0.02
	c0-0.01-0.01-0.02-0.01-0.03c0-0.01,0.01-0.02,0.01-0.04c0-0.01-0.01-0.02-0.01-0.04c0-0.02,0.02-0.03,0.02-0.04
	c0.01-0.02,0.01-0.05,0.03-0.07c0.01-0.02,0.02-0.03,0.04-0.05c0.02-0.02,0.05-0.03,0.07-0.05c0.01-0.01,0.02-0.02,0.04-0.03
	l25.69-7.97l0.96-29.25c-0.07-0.01-0.13-0.01-0.2-0.02c-1.51-0.32-2.47-1.8-2.15-3.31c0.32-1.51,1.8-2.47,3.31-2.15
	c1.06,0.23,1.84,1.04,2.11,2.02l26.94-4.27c-0.03-0.37-0.03-0.74,0.05-1.13c0.44-2.09,2.5-3.43,4.59-2.98
	c2.09,0.44,3.43,2.5,2.98,4.59c-0.24,1.11-0.94,2-1.85,2.53l9.63,19.58l0.63-0.2c0-6.05,0-11.14,0.01-15.43
	c-0.01-7.43-0.01-12.44-0.01-15.81c-0.35-0.01-0.71-0.05-1.06-0.12c0,0,0,0,0,0c-3.69-0.74-6.08-4.34-5.34-8.03
	c0.75-3.69,4.34-6.08,8.03-5.34c0,0,0,0,0,0c0.83,0.17,1.58,0.48,2.26,0.91l39.8-58.94l-8.7-34.45c-1.68,0.3-3.42-0.49-4.23-2.09
	c-1-1.96-0.23-4.36,1.73-5.36c1.8-0.92,3.96-0.33,5.08,1.3l48.96-28.76c-0.03-0.05-0.06-0.1-0.09-0.15
	c-1.95-3.81-0.44-8.48,3.37-10.43c3.81-1.95,8.48-0.44,10.43,3.37c1.91,3.73,0.5,8.26-3.12,10.29l27.14,53.05l30.32-15.04
	c-1.28-2.92-0.09-6.38,2.79-7.85c2.98-1.53,6.65-0.35,8.18,2.64c1.53,2.99,0.34,6.65-2.64,8.18c-1.99,1.02-4.27,0.83-6.03-0.29
	l-22.55,32.04l11.01,21.53c2.21-0.96,4.82-0.07,5.94,2.11c1.16,2.27,0.26,5.05-2,6.21c-1.94,0.99-4.24,0.47-5.59-1.11l-29.92,22.64
	l38.24-2.23l30.65-9.51c-0.2-0.79-0.24-1.63-0.07-2.48c0.61-3.02,3.54-4.97,6.56-4.37l0,0c3.02,0.61,4.98,3.55,4.37,6.57
	c-0.49,2.44-2.51,4.19-4.86,4.44l0.19,3.2l72.16-4.2c0.01-0.14,0.01-0.29,0.04-0.43c0.31-1.51,1.78-2.48,3.29-2.18
	c1.51,0.3,2.49,1.78,2.18,3.29c-0.24,1.23-1.27,2.09-2.45,2.21c0,1.15,0,2.76,0,5.02c0,3.74,0,9.25-0.01,17.36c0,1.61,0,3.33,0,5.16
	c1.3-2.23,3.9-3.5,6.57-2.97c0,0,0.01,0,0.01,0c2.08,0.42,3.7,1.83,4.47,3.64l52.62-19.79c-0.37-1.18-0.34-2.48,0.21-3.69
	c0.9-1.96,2.87-3.08,4.89-3l1.68-17.66c-0.6-0.09-1.21-0.26-1.79-0.53c-3.38-1.55-4.87-5.55-3.32-8.93
	c1.55-3.38,5.55-4.87,8.93-3.32c3.38,1.55,4.87,5.55,3.32,8.93c-0.64,1.4-1.71,2.47-2.97,3.14l11.81,24.02l51.11,2.27
	c0.06-0.63,0.22-1.26,0.5-1.87c1.33-2.91,4.77-4.19,7.68-2.85c0.7,0.32,1.31,0.77,1.8,1.3l16.42-14c-0.92-1.24-1.21-2.91-0.59-4.44
	c0.82-2.03,2.98-3.19,5.12-2.76c0.28,0.06,0.56,0.14,0.82,0.25c2.33,0.94,3.45,3.61,2.51,5.94c-0.82,2.03-2.97,3.19-5.12,2.76
	c-0.28-0.05-0.55-0.14-0.82-0.25c-0.61-0.25-1.13-0.62-1.56-1.06l-16.42,13.99c1.27,1.65,1.6,3.93,0.68,5.95
	c-1.33,2.91-4.77,4.19-7.68,2.85c-2.12-0.97-3.37-3.06-3.38-5.24l-50.8-2.25l10.56,21.49c1.76-0.78,3.84-0.83,5.72,0.03
	c3.51,1.61,5.04,5.75,3.44,9.26c-1.6,3.5-5.75,5.05-9.25,3.44c-3.51-1.61-5.05-5.75-3.44-9.26c0.27-0.59,0.62-1.13,1.02-1.6
	l-22.6-20.76c-1.48,1.44-3.75,1.92-5.75,1c-0.1-0.04-0.18-0.11-0.27-0.16l-15.44,25.44c0.76,0.53,1.34,1.26,1.68,2.15
	c0.02,0.06,0.03,0.13,0.05,0.19l13.68-3.49c-0.13-0.72-0.05-1.49,0.28-2.2c0.86-1.88,3.08-2.7,4.96-1.84
	c1.88,0.86,2.7,3.07,1.84,4.96c-0.86,1.88-3.08,2.7-4.96,1.84c-0.98-0.45-1.66-1.26-1.98-2.2l-13.68,3.48
	c0.18,0.92,0.07,1.87-0.32,2.75c-0.36,0.78-0.91,1.4-1.57,1.86l11.53,19.36c1.24-0.66,2.69-0.91,4.16-0.62
	c0.47,0.1,0.93,0.25,1.37,0.45c1.51,0.69,2.66,1.93,3.24,3.49c0.58,1.55,0.51,3.24-0.18,4.76c-1.21,2.64-4.04,4.08-6.88,3.51
	c-0.47-0.1-0.93-0.25-1.37-0.45c-1.51-0.69-2.66-1.93-3.24-3.49c-0.58-1.56-0.51-3.25,0.18-4.76c0.5-1.09,1.29-1.97,2.24-2.59
	l-11.54-19.35c-0.89,0.46-1.93,0.62-2.98,0.41c-0.34-0.07-0.68-0.18-1-0.33c-1.11-0.51-1.95-1.42-2.38-2.56
	c-0.28-0.76-0.33-1.56-0.2-2.33l-32.33-7.51c-0.73,2.6-3.05,4.38-5.67,4.5c0,8.28-0.03,27.43-0.09,71.75H372.05z M452.92,729.35
	l-12.38-0.55c-0.05,0.55-0.18,1.11-0.42,1.64c-0.19,0.41-0.44,0.78-0.72,1.11l22.61,20.77c0.48-0.48,1.02-0.88,1.61-1.2
	L452.92,729.35z M436.2,723.22c0.47,0.07,0.93,0.18,1.38,0.39c1.88,0.86,2.97,2.7,3,4.63l12.06,0.54l-11.68-23.75
	c-0.96,0.41-2.02,0.6-3.08,0.53L436.2,723.22z M378.1,750.16c0.31,0.95,0.39,1.99,0.19,3.04l32.33,7.51c0.06-0.2,0.12-0.4,0.21-0.6
	c0.88-1.93,2.95-2.99,5.03-2.57c0.35,0.07,0.69,0.18,1.01,0.33c0.07,0.03,0.14,0.08,0.21,0.12l15.44-25.44
	c-0.81-0.55-1.41-1.31-1.79-2.18L378.1,750.16z M103.71,826.64l0.29,2.19l0.58,0.27L103.71,826.64z M257.15,724.74l22.9-1.33
	l6.47-5.88c-0.39-0.48-0.7-1.03-0.92-1.61L257.15,724.74z M205.97,740.62l51.36,3.45l22.06-20.05l-24.49,1.43L205.97,740.62z
	 M184.35,739.17l7.08,0.48l7.71-10.96l-13.98,0.81L184.35,739.17z M184.6,729.53l-6.1,0.36l1.93,9.02l3.36,0.23L184.6,729.53z
	 M185.74,715.97l-9.76,2.16l2.4,11.19l6.27-0.36L185.74,715.97z M167.95,695.6l-5.32,3.17l8.21,4.94c0.19-0.25,0.43-0.47,0.71-0.64
	L167.95,695.6z M172.07,702.83c0.38-0.14,0.77-0.19,1.16-0.15l2.49-11.71l-7.27,4.34L172.07,702.83z M162.08,699.11l-4.54,2.71
	l4.02,7.86l8.84-3.63c-0.18-0.63-0.11-1.28,0.15-1.85L162.08,699.11z M161.83,710.19l4.82,9.42l8.66-1.92l-2.08-9.74
	c-1.04,0.11-2.08-0.41-2.61-1.37L161.83,710.19z M166.91,720.14l4.89,9.57l6-0.35l-2.38-11.1L166.91,720.14z M185.79,715.38
	l0.88-10.46l-11.08,0.56c-0.05,0.91-0.56,1.77-1.43,2.21c-0.12,0.06-0.25,0.11-0.38,0.15l2.08,9.74L185.79,715.38z M186.72,704.35
	l1.77-21.01l-12.12,7.24l-2.6,12.22c0.64,0.21,1.21,0.66,1.54,1.31c0.13,0.26,0.2,0.53,0.25,0.8L186.72,704.35z M188.55,682.64
	l0.6-7.16l-10.7,5.31l-1.92,9.03L188.55,682.64z M177.81,681.11l-13.08,6.49l3.47,7.19l7.68-4.58L177.81,681.11z M164.22,687.86
	l-6.99,3.47c0.58,1.36,0.49,2.86-0.15,4.11l5.01,3.02l5.62-3.36L164.22,687.86z M163.97,687.34l-4.27-8.86l-4.67,10.44
	c0.8,0.41,1.47,1.06,1.95,1.89L163.97,687.34z M155.25,697.33l2.04,3.98l4.25-2.54l-4.76-2.87
	C156.38,696.48,155.87,696.96,155.25,697.33z M157.05,702.11l-47.98,28.65c0.07,0.13,0.13,0.26,0.19,0.39l51.78-21.25L157.05,702.11
	z M109.48,731.67c0.07,0.18,0.13,0.37,0.18,0.56l56.42-12.49l-4.78-9.33L109.48,731.67z M109.78,732.79
	c0.03,0.17,0.06,0.35,0.08,0.53l61.33-3.57l-4.85-9.48L109.78,732.79z M109.88,734.17l65.83,4.42l-4.24-8.29l-61.59,3.59
	C109.89,733.98,109.88,734.07,109.88,734.17z M176.37,738.63l3.46,0.23l-1.91-8.94l-5.83,0.34L176.37,738.63z M176.68,739.22
	l4.27,8.35c0.23-0.1,0.46-0.2,0.69-0.27l-1.68-7.86L176.68,739.22z M182.2,747.21c0.27-0.04,0.54-0.06,0.81-0.06l0.1-0.03l0.63-7.42
	l-3.19-0.21L182.2,747.21z M183.7,746.93l3.33-1.03l4.02-5.71l-6.75-0.45L183.7,746.93z M184.34,747.33
	c0.45,0.13,0.88,0.32,1.28,0.57l0.87-1.24L184.34,747.33z M186.09,748.22c0.26,0.2,0.49,0.43,0.71,0.68l5.24-3.96l-4.65,1.44
	L186.09,748.22z M193.37,743.93l4.36-3.3l-6.01-0.4l-3.8,5.39L193.37,743.93z M194.96,743.44l7.92-2.46l-4.29-0.29L194.96,743.44z
	 M214.72,727.78l-14.85,0.86l-7.77,11.04l6.32,0.42L214.72,727.78z M212.22,710.11l-25.9,5.73l-1.1,13.08l14.35-0.84L212.22,710.11z
	 M212.71,709.42l4.24-6.02l-29.7,1.49l-0.87,10.36L212.71,709.42z M213.53,709.24l31.9-7.06c-0.01-0.07-0.03-0.13-0.03-0.2
	l-27.73,1.39L213.53,709.24z M245.92,699.26l-17.62-11.01l-10.22,14.52l27.3-1.37C245.39,700.66,245.56,699.92,245.92,699.26z
	 M236.46,675.68l-8.22-16.07l-22.86,13.65l22.77,14.23L236.46,675.68z M204.82,673.59l-15.73,9.39l-1.8,21.34l30.06-1.51
	l10.46-14.86L204.82,673.59z M204.28,673.25l-4.7-2.94l-9.82,4.87l-0.6,7.1L204.28,673.25z M199.01,669.96l-8.38-5.23l-0.83,9.8
	L199.01,669.96z M190.1,664.39l-7.2-4.5l-4.29,20.19l10.61-5.26L190.1,664.39z M182.38,659.57l-11.13-6.95L160,677.8l4.48,9.29
	l13.48-6.69L182.38,659.57z M170.77,652.31l-8.54-5.34l-9.97,14.77l7.42,15.4L170.77,652.31z M151.89,662.28l-4.8,7.1l4.82,19.1
	c0.88-0.17,1.78-0.09,2.59,0.22l4.87-10.89L151.89,662.28z M149.29,696.46l-40.76,33.46c0.09,0.12,0.18,0.23,0.25,0.36l48.01-28.67
	l-2.05-4.01C152.83,698.43,150.65,697.94,149.29,696.46z M140.38,760.37l39.73-12.33c0.11-0.07,0.22-0.15,0.33-0.21l-4.43-8.66
	l-66.17-4.44c-0.02,0.2-0.05,0.4-0.09,0.61c-0.18,0.88-0.52,1.68-0.98,2.39L140.38,760.37z M108.44,738.19
	c-0.07,0.09-0.14,0.18-0.22,0.27l25.55,23.97l5.93-1.84L108.44,738.19z M140.96,760.79l23.68,16.96l64.51-8.07l27.6-25.08
	l-52.28-3.51l-10.83,3.36l-6.5,4.92c0.11,0.16,0.23,0.32,0.32,0.5c1.26,2.46,0.28,5.5-2.19,6.76c-2.47,1.27-5.5,0.29-6.76-2.18
	c-0.95-1.85-0.64-4,0.6-5.49L140.96,760.79z M215.73,727.72l-16.45,12.45l5.11,0.34l48.13-14.94L215.73,727.72z M246.14,704
	c-0.1-0.14-0.2-0.28-0.28-0.43c-0.14-0.27-0.24-0.55-0.32-0.83l-32.49,7.19l-12.76,18.12l15.24-0.89L246.14,704z M236.75,676.25
	l-8.12,11.54l17.61,11c0.36-0.51,0.83-0.94,1.39-1.28L236.75,676.25z M228.72,659.32l8.1,15.84l22.38-31.79
	c-0.51-0.4-0.97-0.88-1.34-1.44L228.72,659.32z M227.31,656.55l1.16,2.26l28.08-16.77L227.31,656.55z M226.8,656.8l-26.62,13.21
	l4.66,2.91l23.14-13.82L226.8,656.8z M195.76,603.98l-5.07,60.11l8.92,5.57l26.93-13.36l-27.14-53.04
	C198.23,603.81,196.98,604.04,195.76,603.98z M194.8,603.87l-11.78,55.43l7.13,4.45l5.05-59.81
	C195.06,603.92,194.93,603.89,194.8,603.87z M193.23,603.42l-21.74,48.67l11.02,6.89l11.74-55.22
	C193.9,603.67,193.56,603.56,193.23,603.42z M192.04,602.81l-29.49,43.68l8.46,5.29l21.71-48.59
	C192.48,603.08,192.26,602.95,192.04,602.81z M140.6,632.79l21.46,13.41l29.5-43.7c-0.76-0.56-1.44-1.26-1.97-2.09l-48.95,28.75
	C141.24,630.35,141.18,631.69,140.6,632.79z M139.06,634.37l12.91,26.78l9.77-14.48l-21.45-13.4
	C139.97,633.7,139.56,634.08,139.06,634.37z M146.9,668.64l4.7-6.96l-13.06-27.08c-0.07,0.03-0.14,0.06-0.22,0.08L146.9,668.64z
	 M107.15,728.54c0.37,0.28,0.71,0.59,1.02,0.94l40.76-33.46c-0.14-0.2-0.29-0.4-0.4-0.63c-1.22-2.37-0.28-5.27,2.09-6.49
	c0.24-0.12,0.49-0.21,0.75-0.29l-4.7-18.6L107.15,728.54z M103.22,740.8c0.04,5.34,0.07,14.68,0.1,31.07l29.86-9.27l-25.33-23.76
	C106.63,740.05,104.98,740.77,103.22,740.8z M102.79,786.07l-5.73,0.72l5.73,4.66c0-0.67,0-1.33,0-1.99
	C102.79,788.3,102.79,787.17,102.79,786.07z M102.79,792.14l-6.47-5.26l-14.21,1.78l20.68,28.52
	C102.79,807.82,102.79,799.51,102.79,792.14z M95.71,786.38l-10.27-8.36l-9.01,2.8l5.3,7.32L95.71,786.38z M102.41,772.75l0.38,0.77
	c0-0.3,0-0.6,0-0.89L102.41,772.75z M101.9,772.91l-15.85,4.92l10.39,8.46l6.34-0.79c0-3.88,0-7.46,0-10.78L101.9,772.91z
	 M59.44,756.16l26.09,21.23l16.12-5l-9.59-19.49c-0.7,0.29-1.48,0.38-2.27,0.21c-1.51-0.32-2.62-1.49-2.95-2.91l-26.94,4.27
	c0.01,0.24,0,0.48-0.05,0.73C59.77,755.55,59.63,755.88,59.44,756.16z M58.96,756.71l17.12,23.62l8.83-2.74L59.1,756.58
	C59.06,756.63,59.01,756.67,58.96,756.71z M56.37,786.44l19.19-5.95l-17.02-23.48c-0.37,0.22-0.78,0.35-1.22,0.38L56.37,786.44z
	 M56.21,791.32l24.94-3.12l-5.24-7.23l-19.56,6.07L56.21,791.32z M55.61,791.97l-24.44,3.06l23.97,11.13L55.61,791.97z
	 M55.77,787.22l-22.45,6.96l22.31-2.79L55.77,787.22z M102.79,824.03c0-2.04,0-4.02,0-5.97l-21.26-29.33l-25.34,3.17l-0.48,14.52
	l47.67,22.13L102.79,824.03z M103.33,785.42l4.45-0.56l-4.46-9.07C103.33,778.79,103.33,781.99,103.33,785.42z M108.05,785.41
	l-4.71,0.59c0,1.9,0,3.86,0.01,5.9l13.17,10.72L108.05,785.41z M151.13,779.44l-17.47-16.39l-30.34,9.41c0,0.7,0,1.41,0,2.14
	l5.01,10.19L151.13,779.44z M151.82,779.36l11.98-1.5L140.28,761l-6.03,1.87L151.82,779.36z M195.74,800.73l-0.05-0.06
	c-0.01,0-0.01-0.01-0.01-0.01c-0.02-0.01-0.05-0.02-0.07-0.03l-31.11-22.29l-12.13,1.52l43.21,40.54
	C195.62,806.45,195.68,802.09,195.74,800.73z M228.41,770.34l-63.09,7.9l30.43,21.8L228.41,770.34z M197.38,799.31l70.97-33.97
	l-38.96,4.88L197.38,799.31z M290.56,762.57l-20.43,2.56l-71.39,34.17l91.81-25.15C290.55,770,290.56,766.15,290.56,762.57z
	 M290.57,755.34l-18.81,9l18.8-2.35C290.56,759.66,290.56,757.45,290.57,755.34z M290.57,746.86l-33.05-2.22l-27.41,24.91
	l39.86-4.99l20.59-9.85C290.57,751.91,290.57,749.3,290.57,746.86z M290.63,723.36l-10.35,0.6l-22.18,20.16l32.46,2.18
	C290.59,735.43,290.61,728.18,290.63,723.36z M290.66,719.55c-0.3-0.01-0.61-0.04-0.91-0.1c0,0-0.01,0-0.01,0
	c-1.11-0.22-2.08-0.76-2.83-1.51l-5.95,5.41l9.68-0.56C290.64,721.55,290.65,720.48,290.66,719.55z M366.34,767.11l-23.18,56.7
	l23.14-15.33C366.31,791.79,366.33,778.2,366.34,767.11z M291.66,723.3l1.35,23.16l12.98,0.87l57.96-27.74
	c-0.06-0.16-0.1-0.32-0.13-0.5L291.66,723.3z M291.11,755.08c0,2.17,0,4.44,0,6.84l2.22-0.28l-0.43-7.42L291.11,755.08z
	 M292.86,753.61l-0.39-6.62l-1.36-0.09c0,2.35,0,4.86,0,7.55L292.86,753.61z M293.42,753.35l11.53-5.52l-11.9-0.8L293.42,753.35z
	 M293.45,753.96l0.44,7.61l72.14-9.03c-0.02-0.2-0.02-0.41-0.02-0.62l-59.91-4.02L293.45,753.96z M291.11,723.54
	c0.01,4.82,0.01,12.03,0.01,22.8l1.32,0.09L291.11,723.54z M294,773.19l-0.64-10.98l-2.25,0.28c0,1.58,0,3.22,0,4.91
	c0,2.11,0,4.3,0,6.58L294,773.19z M366.16,753.42c-0.02-0.1-0.04-0.21-0.06-0.31l-72.17,9.03l0.64,10.89L366.16,753.42z
	 M366.52,721.43c-0.17,0-0.33-0.02-0.5-0.05c0,0,0,0,0,0c-0.79-0.16-1.43-0.64-1.82-1.28l-57.05,27.31l58.91,3.95
	c0.02-0.17,0.04-0.35,0.08-0.53c0.06-0.29,0.15-0.58,0.24-0.85C366.41,732.9,366.47,725.04,366.52,721.43z M369.61,757.69
	c-1.18-0.54-2.13-1.43-2.76-2.52c0,2.86,0,5.94,0,9.27L369.61,757.69z"/>
</symbol>
<symbol id="artwork01" viewBox="200 -415 2000 1245" preserveAspectRatio="xMidYMid slice">
	<path class="st0" d="M702.26,780.67c0-0.34,0-0.66,0-1c0.33,0.09,0.67,0.14,1.03,0.16c2.22,0.09,4.14-1.33,4.82-3.34
	l65.75,17.93c-0.08,0.34-0.13,0.69-0.14,1.05c-0.13,3.27,2.41,6.03,5.69,6.16c0.01,0,0.03,0,0.04,0
	c-0.03,4.79-0.05,13.29-0.07,28.38h0.5c-0.03-15.08-0.06-23.59-0.1-28.38c3.01-0.06,5.5-2.38,5.76-5.4l3.36,0.14l0.83,33.64h0.56
	l-0.83-33.62l15.14,0.62c-0.03,7.21-0.05,17.72-0.06,33h0.53c-0.01-15.27-0.02-25.77-0.04-32.98l38.23,1.56L833.66,830h0.58
	l9.57-31.4l10.97,0.45c0.01,3.28,2.6,6.01,5.93,6.14c3.4,0.13,6.27-2.52,6.41-5.93c0.14-3.41-2.52-6.29-5.92-6.42
	c-0.27-0.01-0.54,0-0.8,0.03l-12.22-90.6c2.54-0.47,4.52-2.65,4.63-5.34c0.12-3.13-2.3-5.76-5.43-5.89
	c-3.03-0.12-5.6,2.17-5.87,5.16l-29.71-1.21l-20.69-43.52c2.29-1.2,3.9-3.54,4.01-6.31c0.17-4.12-3.04-7.6-7.16-7.77
	c-4.13-0.17-7.6,3.04-7.77,7.16c-0.16,3.99,2.85,7.38,6.79,7.73l-2.21,41.6l-73.24-2.99c0.06-5.14-3.97-9.42-9.13-9.63
	c-5.26-0.22-9.69,3.87-9.91,9.13c-0.21,5.26,3.87,9.7,9.13,9.91c0.04,0,0.08,0,0.12,0c-0.02,9.89-0.02,29.83,0.01,70.05
	c-1.78,0.67-3.08,2.36-3.16,4.38c-0.09,2.16,1.24,4.03,3.16,4.75c0,0.48,0,0.94,0,1.42L726.28,830h0.62L702.26,780.67z
	 M707.89,772.86l38.84-21.15l20,27.03l-58.37-3.76C708.37,774.21,708.19,773.5,707.89,772.86z M773.99,793.88l-65.74-17.93
	c0.03-0.14,0.04-0.28,0.06-0.42l58.85,3.79l8.73,11.8C775.02,791.83,774.35,792.78,773.99,793.88z M779.67,789.79
	c-1.23-0.01-2.37,0.36-3.33,1l-8.45-11.42l12.29,0.79L779.67,789.79z M767.46,778.78l-20.23-27.35l14.28-7.77l19.69,17.38
	l-0.99,18.57L767.46,778.78z M782.02,745.61l-0.78,14.72l-19.21-16.95l9.28-5.06L782.02,745.61z M771.86,738.02l10.88-5.92
	l-0.68,12.86L771.86,738.02z M806.47,778.69l6.13-12.26l33.48,22.8l-1.35,4.43l-36.78-11.49c0.04-0.19,0.07-0.37,0.08-0.57
	C808.08,780.38,807.44,779.29,806.47,778.69z M812.85,765.93l16.43-32.87l17.61,37.03c0,5.15-0.01,10.64-0.01,16.53l-0.62,2.05
	L812.85,765.93z M812.38,765.62l-24.1-16.41l-0.35-14.36c0-1.9,0-3.75,0-5.57l31.42-17.11l9.63,20.26L812.38,765.62z M788.48,780.14
	l-7.72-0.5l0.96-18.13l6.44,5.68L788.48,780.14z M780.22,789.82l0.51-9.62l7.76,0.5l0.23,9.54l-4.09,2.32
	C783.69,791.05,782.09,790.01,780.22,789.82z M785.54,795.67c-0.01-0.94-0.23-1.84-0.63-2.63l3.83-2.17l0.12,4.94L785.54,795.67z
	 M788.73,767.69l13.41,11.83c-0.31,0.42-0.51,0.92-0.59,1.46l-12.51-0.81L788.73,767.69z M789.05,780.73l12.46,0.8
	c0.01,0.46,0.11,0.89,0.3,1.29l-12.53,7.1L789.05,780.73z M804.58,796.45l-15.16-0.62l-0.13-5.28l12.79-7.24
	c0.56,0.82,1.48,1.38,2.55,1.42c0.01,0,0.02,0,0.03,0C804.63,786.95,804.61,790.57,804.58,796.45z M802.51,779.1l-13.8-12.18
	l-0.42-17.04l23.84,16.23l-6.16,12.32c-0.33-0.13-0.69-0.23-1.07-0.24C803.98,778.16,803.13,778.52,802.51,779.1z M843.4,798.03
	l-38.4-1.57c-0.02-5.91-0.04-9.53-0.06-11.75c1.28-0.07,2.37-0.87,2.84-2.01l36.79,11.5L843.4,798.03z M854.79,798.49l-10.82-0.44
	l1.12-3.69l9.87,3.08C854.88,797.78,854.82,798.14,854.79,798.49z M855.13,796.91l-9.87-3.09l1.3-4.26l9.12,6.21
	C855.46,796.13,855.28,796.51,855.13,796.91z M856,795.32l-9.27-6.31l0.68-2.22c0-5.53,0.01-10.71,0.01-15.58l10.63,22.36
	C857.24,794,856.54,794.59,856,795.32z M847.62,702.35l12.22,90.6c-0.45,0.08-0.88,0.21-1.3,0.39l-11.13-23.42
	c0.01-41.76-0.01-59.78-0.05-67.55C847.45,702.36,847.53,702.36,847.62,702.35z M846.91,702.37c0.05,0,0.09,0,0.13,0
	c-0.07,7.73-0.13,25.53-0.16,66.43l-17.29-36.37l15.27-30.54C845.49,702.17,846.18,702.34,846.91,702.37z M844.36,701.64
	l-15.07,30.15l-9.46-19.9l22.47-12.24C842.81,700.48,843.52,701.16,844.36,701.64z M841.48,696.76c0.01,0.86,0.2,1.68,0.56,2.41
	l-22.45,12.22l-7.53-15.84L841.48,696.76z M819.1,711.66l-31.18,16.98c0-13.37-0.01-24.61-0.01-34.07l23.52,0.96L819.1,711.66z
	 M790.6,651.71l20.57,43.26l-23.25-0.95c-0.02-22.79-0.05-35.08-0.09-41.7C788.8,652.29,789.74,652.08,790.6,651.71z M788.14,766.43
	l-6.38-5.63l0.79-14.82l5.18,3.52L788.14,766.43z M782.59,745.33l0.72-13.54l4.06-2.21c0,1.73,0,3.48,0,5.28l0.34,13.96
	L782.59,745.33z M787.45,653.72c-0.04,6.9-0.06,19.02-0.08,40.27l-2.06-0.08L787.45,653.72z M785.29,694.46l2.09,0.09
	c-0.01,9.53-0.01,20.88-0.01,34.39l-4.03,2.19L785.29,694.46z M711.5,691.46l73.23,2.99l-1.97,37l-11.43,6.22l-61.31-41.75
	C710.87,694.62,711.39,693.1,711.5,691.46z M709.72,696.38l61.07,41.58l-9.21,5.02l-52.25-46.1
	C709.46,696.72,709.6,696.55,709.72,696.38z M708.96,697.3l52.1,45.97l-14.17,7.72l-38.99-52.7
	C708.28,697.98,708.63,697.65,708.96,697.3z M707.44,698.61l38.95,52.64l-38.76,21.1c-0.83-1.33-2.28-2.24-3.95-2.31
	c0,0-0.01,0-0.01,0l-1.22-69.74C704.3,700.22,706.01,699.61,707.44,698.61z M702.15,714.94l0.97,55.14
	c-0.3,0.02-0.59,0.07-0.87,0.14C702.22,744.26,702.19,726.75,702.15,714.94z M1510.74,172.93c-2.3,0.03-4.15,1.91-4.12,4.21
	c0.02,1.51,0.84,2.82,2.05,3.53l-12.87,25.46c-0.76-0.34-1.6-0.55-2.48-0.58c-1.03-0.03-2.02,0.18-2.9,0.58l-6.57-12.99
	c0.92-0.57,1.53-1.58,1.52-2.75c-0.02-1.77-1.47-3.18-3.23-3.16c-1.77,0.02-3.19,1.47-3.16,3.24c0.02,1.77,1.46,3.18,3.23,3.16
	c0.41-0.01,0.8-0.09,1.15-0.24l6.56,12.98c-1.93,1.08-3.26,3.11-3.34,5.48c-0.02,0.77,0.09,1.51,0.31,2.2l-59.59,21.93l-25.27-22.03
	c1.05-1.27,1.72-2.88,1.77-4.65c0.14-4.25-3.19-7.79-7.43-7.94c-4.24-0.14-7.79,3.19-7.94,7.43c-0.05,1.72,0.47,3.32,1.38,4.63
	l-36.54,27.7l-49.53-9.73c0.02-0.13,0.05-0.26,0.05-0.4c0.08-2.32-1.75-4.26-4.06-4.34c-2.33-0.07-4.26,1.74-4.34,4.06
	c-0.01,0.36,0.04,0.7,0.11,1.03l-17.47,5.03c-0.44-1.13-1.52-1.94-2.8-1.98c-1.71-0.06-3.15,1.29-3.21,3
	c-0.05,1.72,1.29,3.15,3.01,3.21c1.71,0.06,3.15-1.29,3.21-3c0.01-0.24-0.02-0.47-0.06-0.69l17.47-5.03
	c0.57,1.57,2.04,2.71,3.81,2.78c1.47,0.05,2.79-0.67,3.57-1.79l33.62,20.45l-31.56,23.92c-3.61,0.74-6.84,3.04-8.63,6.54
	l-59.95,45.44l-50.64-23.92c2.05-4.69,0.02-10.2-4.65-12.4c-4.75-2.25-10.42-0.21-12.66,4.54c-2.24,4.74-0.21,10.42,4.53,12.66
	c0.08,0.04,0.17,0.07,0.26,0.11l-36.69,91.03c-2.75-0.96-5.84,0.29-7.11,2.99c-1.36,2.88-0.13,6.33,2.75,7.69
	c1.1,0.52,2.28,0.66,3.39,0.47l21.02,98.64l-21.39,7.3c-0.54-1.37-1.58-2.55-3.02-3.23c-0.44-0.21-0.89-0.35-1.35-0.44l2.82-17.7
	c1.6,0.14,3.2-0.7,3.93-2.24c0.93-1.98,0.09-4.34-1.89-5.27c-1.98-0.94-4.34-0.09-5.27,1.89c-0.93,1.98-0.09,4.33,1.89,5.27
	c0.26,0.12,0.53,0.21,0.79,0.27l-2.81,17.69c-1.33-0.15-2.66,0.15-3.79,0.83l-25.29-37.53c0.49-0.38,0.91-0.87,1.2-1.47
	c0.97-2.04,0.09-4.47-1.94-5.43c-2.04-0.97-4.48-0.09-5.44,1.94c-0.96,2.04-0.09,4.47,1.95,5.43c1.26,0.59,2.66,0.49,3.78-0.16
	l25.29,37.52c-0.77,0.57-1.41,1.33-1.85,2.25c-1.41,3-0.13,6.58,2.86,7.99c2.41,1.14,5.19,0.53,6.93-1.31l22.95,19.75l-19.79,27.04
	c-0.34-0.23-0.69-0.44-1.07-0.62c-3.99-1.89-8.75-0.18-10.63,3.81c-1.88,3.99-0.18,8.75,3.81,10.63c3.98,1.88,8.74,0.18,10.63-3.81
	c1.62-3.43,0.57-7.43-2.29-9.68l19.77-27l7.87,6.77l17.86,83.8c-1.7,0.41-3.31,1.3-4.59,2.67c-1.1,1.18-1.83,2.57-2.19,4.03
	l-117.58-25.99c0.92-4.63-0.48-9.61-4.19-13.07c-5.69-5.31-14.61-5-19.92,0.69c-5.31,5.69-5,14.61,0.69,19.92
	c0.13,0.12,0.28,0.23,0.42,0.35l-30.09,36.28l-12.69-14.33l-15.14-42.81c1.11-0.44,2.13-1.14,2.97-2.1
	c2.63-3.05,2.41-7.59-0.41-10.38l28.49-31.1c1.44,1.16,3.52,1.27,5.09,0.14c1.08-0.78,1.66-1.99,1.72-3.23l30.48-0.73
	c0.08,1.13,0.46,2.26,1.17,3.24c2.03,2.79,5.93,3.42,8.73,1.39c2.79-2.03,3.42-5.94,1.39-8.73c-2.03-2.8-5.93-3.41-8.73-1.39
	c-1.65,1.19-2.53,3.04-2.57,4.93l-30.48,0.73c-0.07-0.73-0.31-1.45-0.77-2.09c-0.53-0.73-1.25-1.23-2.05-1.5l4.89-18.09
	c1.22,0.25,2.53,0.02,3.63-0.77c2.05-1.49,2.51-4.36,1.02-6.41c-1.49-2.06-4.37-2.52-6.42-1.03c-2.05,1.49-2.51,4.36-1.02,6.42
	c0.58,0.8,1.38,1.35,2.26,1.65l-4.89,18.09c-0.87-0.17-1.79-0.08-2.63,0.32l-18.58-33.09c0.13-0.08,0.26-0.16,0.38-0.25
	c2.2-1.6,3.07-4.35,2.38-6.82l33.88-11.01c0.33,0.94,0.8,1.85,1.42,2.7c3.45,4.76,10.12,5.82,14.88,2.37
	c4.77-3.46,5.83-10.12,2.37-14.89c-3.46-4.76-10.12-5.82-14.89-2.36c-2.61,1.9-4.1,4.76-4.35,7.74l-27.42-1.56l32.72-52.43
	c2.62,1.51,5.99,1.44,8.6-0.45c3.54-2.57,4.33-7.52,1.75-11.06c-1.81-2.49-4.79-3.61-7.64-3.17l-5.17-26.6
	c0.55-0.14,1.07-0.4,1.54-0.77c1.82-1.45,2.13-4.1,0.68-5.91c-1.44-1.82-4.09-2.12-5.91-0.68c-1.82,1.45-2.12,4.1-0.68,5.92
	c0.95,1.19,2.42,1.72,3.82,1.54l5.17,26.6c-1,0.23-1.98,0.66-2.87,1.31c-3.54,2.57-4.33,7.52-1.76,11.06
	c0.56,0.77,1.24,1.41,1.99,1.91l-32.88,52.69l-32.23-1.83c0.07-1.93-0.47-3.89-1.69-5.57c-2.9-4-8.49-4.88-12.48-1.99
	c-3.99,2.9-4.88,8.48-1.99,12.48c2.9,3.99,8.49,4.88,12.48,1.99c0.72-0.52,1.34-1.14,1.85-1.81l17.33,12.07
	c-1.35,2.13-1.35,4.95,0.22,7.11c0.97,1.35,2.38,2.19,3.89,2.49l-10.59,68.25c-2.43-0.29-4.95,0.6-6.66,2.59
	c-2.75,3.18-2.4,7.99,0.78,10.74c0.86,0.74,1.84,1.25,2.86,1.55l-3.9,15.53l-30.67-34.62c0.04-0.04,0.09-0.07,0.13-0.12
	c1.23-1.44,1.08-3.6-0.36-4.84c-1.43-1.23-3.59-1.08-4.83,0.36c-1.24,1.43-1.08,3.6,0.35,4.83c0.51,0.44,1.12,0.7,1.74,0.79
	l-6.31,93.69L891.6,663c1.02-2.63,0.35-5.72-1.91-7.67c-2.86-2.47-7.19-2.16-9.67,0.71c-2.47,2.87-2.16,7.19,0.71,9.67
	c1.23,1.06,2.72,1.6,4.22,1.66c-0.02,5.13-0.02,14-0.02,29.34c-0.01,12.88,0,30.29,0.01,53.88l4.4,16.16L858.38,830H859l30.58-62.43
	l9.37,34.42l-18.37,28h0.67l17.9-27.28l7.43,27.28h0.58l-7.6-27.91l7.99-12.17l9.47,16.49c-1.23,0.5-2.36,1.29-3.29,2.36
	c-3.14,3.64-2.73,9.14,0.9,12.28c1.57,1.36,3.49,2.05,5.41,2.11c0,1.86,0,4.12,0,6.84h0.43c0-2.73,0-5,0.01-6.85
	c1.82-0.03,3.63-0.63,5.13-1.78l4.95,8.62h0.64l-5.17-8.99c0.3-0.26,0.6-0.54,0.87-0.86c1.8-2.08,2.43-4.76,1.97-7.26l16.6-3.6
	l1.48,20.71h0.56l-1.49-20.83l18.71-4.05L962.25,830h0.56l2.49-25l0.15-0.03l0.73,25.03h0.56l-0.73-25.15l3.2-0.69l0.99,1.15
	l-0.96,24.7h0.56l0.94-24.08l4.95,5.77l5.26,18.3h0.58l0-0.01c0-4.09,0-7.91,0.01-11.49l8.09,9.43l-3,2.07h0.98l2.38-1.64l1.41,1.64
	h0.74l-1.68-1.96l8.43-5.81l1.37,7.76h0.57l-1.44-8.11l13.41-9.24l-5.09,17.35h0.58l5.24-17.85l4.33-2.99l-5.29,20.84h0.57
	l5.01-19.73l1.33,19.73h0.56l-1.45-21.51c0-4.79,0-9.3,0-13.59l0.45-1.53l2.57-0.56l4.1,6.06c-0.47,0.34-0.91,0.72-1.31,1.16
	c-3.4,3.64-3.2,9.35,0.44,12.75c1.67,1.56,3.76,2.35,5.87,2.41c0,3.46,0,8.24,0.01,14.82h0.55c0-6.57-0.01-11.34-0.01-14.81
	c2.32-0.07,4.62-1.03,6.33-2.86c1.13-1.21,1.85-2.64,2.19-4.14l27.63,5.44c-0.25,1.75,0.32,3.58,1.7,4.88
	c1.01,0.94,2.27,1.41,3.54,1.46c-0.01,2.3-0.01,5.52-0.02,10.02h0.56c0-4.5,0-7.71-0.01-10c0.94-0.05,1.86-0.34,2.68-0.86
	l2.92,10.86h0.58l-3.02-11.2c0.22-0.18,0.45-0.35,0.64-0.57c1.47-1.58,1.83-3.78,1.14-5.69l27.99-11.74
	c-0.03,7.46-0.05,17-0.08,29.2h0.12c0.01-12.24,0.01-21.79,0.02-29.22l37.82-15.87L1107.11,830h0.72l37.24-45.55l4.13-1.73
	L1113.91,830h0.69l35.6-47.71l7.08-2.97L1125.76,830h0.66l31.76-51.05l16.75-7.03L1159.09,830h0.58l15.91-58.36l20.15-8.46
	c0.37,0.79,0.89,1.53,1.57,2.16c1.35,1.26,3.06,1.88,4.76,1.88c-0.07,8.21-0.14,25.68-0.18,62.77h0.46
	c0.03-37.18,0.03-54.6,0.01-62.76c1.79-0.07,3.55-0.81,4.87-2.23c2.65-2.84,2.49-7.29-0.35-9.93c-2.77-2.59-7.07-2.5-9.73,0.15
	l-13.64-12.72l2.1-7.71c0.01-22.92,0.01-40.02,0.01-52.78c0-6.65,0-12.12,0-16.61c0-0.41,0-0.82,0-1.21c0-4.28,0-7.64,0-10.25
	c2.37-0.07,4.72-1.05,6.47-2.92c3.28-3.51,3.27-8.91,0.13-12.42l123.22-116.51c0.22,0.19,0.45,0.37,0.73,0.5
	c1.56,0.73,3.42,0.07,4.16-1.49c0.74-1.56,0.07-3.42-1.49-4.16c-0.08-0.04-0.17-0.06-0.25-0.09l33.81-123.87
	c3.43,0.81,7.08-0.86,8.64-4.18c1.8-3.81,0.17-8.36-3.65-10.16c-3.72-1.76-8.15-0.24-10.03,3.4l-36.28-17.14l-2.7-62.47
	c4.39-0.29,8.49-2.89,10.5-7.14c0.74-1.56,1.12-3.2,1.19-4.82l36.23,0.72l-6.08,5.74c-0.93-0.89-2.18-1.46-3.57-1.5
	c-2.98-0.1-5.49,2.25-5.59,5.24c-0.1,2.99,2.25,5.5,5.23,5.59c2.99,0.1,5.5-2.25,5.6-5.24c0.01-0.27-0.01-0.54-0.04-0.81l43.74-7.46
	c0.43,1.8,2,3.17,3.94,3.23c0.86,0.03,1.66-0.2,2.34-0.63l19.89,27.91c-0.7,0.6-1.14,1.47-1.13,2.46c0.02,1.77,1.47,3.19,3.24,3.17
	c1.77-0.02,3.18-1.47,3.17-3.24c-0.02-1.77-1.47-3.19-3.23-3.17c-0.58,0.01-1.11,0.18-1.58,0.45l-19.9-27.92
	c0.91-0.74,1.51-1.84,1.55-3.11c0.03-0.9-0.23-1.74-0.7-2.44l14.18-10.7c0.98,1.17,2.43,1.93,4.07,1.98c3.07,0.1,5.63-2.3,5.73-5.37
	c0.1-3.06-2.31-5.62-5.37-5.72c-3.07-0.1-5.63,2.3-5.73,5.37c-0.04,1.22,0.32,2.36,0.96,3.29l-14.19,10.71
	c-0.58-0.67-1.37-1.16-2.28-1.35l5.33-35.61l39.94,7.85c-0.08,0.47-0.14,0.94-0.15,1.43c-0.2,5.88,4.41,10.81,10.3,11
	c5.88,0.19,10.8-4.42,11-10.3c0.19-5.88-4.42-10.81-10.31-11c-3.23-0.11-6.16,1.24-8.19,3.45l-20.71-18.05l59.31-21.83
	c0.96,2.28,3.17,3.92,5.81,4.01c3.6,0.12,6.61-2.71,6.73-6.31c0.08-2.52-1.28-4.75-3.33-5.9l12.87-25.46
	c0.51,0.22,1.08,0.34,1.68,0.33c2.3-0.02,4.15-1.91,4.12-4.22C1514.93,174.75,1513.05,172.91,1510.74,172.93z M1395.87,216.76
	c0.75,0.02,1.47-0.06,2.16-0.24l6.8,21.81c-2.19,0.8-3.78,2.86-3.86,5.32c-0.05,1.53,0.49,2.94,1.42,4.01l-2.75,2.6l-39.71-7.8
	l30.68-28.04C1391.95,215.81,1393.8,216.69,1395.87,216.76z M1399.14,250.73l-26.01,24.56l-29.5-17.94l15.79-14.43L1399.14,250.73z
	 M1390.15,213.9c0.03,0.04,0.06,0.07,0.09,0.1l-30.99,28.32l-5.24-1.03L1390.15,213.9z M1353.41,241.75l5.33,1.05l-15.6,14.26
	l-5.5-3.35L1353.41,241.75z M1303.31,232.83c0.14-0.27,0.26-0.55,0.34-0.85l49.03,9.63l-15.56,11.79L1303.31,232.83z
	 M1304.24,301.99l-13.45,53.32l-4.68-2.21l17.65-51.25C1303.92,301.9,1304.08,301.95,1304.24,301.99z M1314.57,520.81l-68.9,31.82
	l33.12-50.85l35.81,16.91C1314.33,519.39,1314.33,520.14,1314.57,520.81z M1199.97,573.06c-0.31-0.49-0.68-0.94-1.12-1.33
	l19.33-23.13l-5.98,17.36L1199.97,573.06z M1211.93,566.77l-0.59,1.71l-11.07,5.11c-0.01-0.02-0.02-0.03-0.02-0.05L1211.93,566.77z
	 M1183.25,544.05l-0.79-32.99l5.08-6.93c0.16,0.1,0.3,0.21,0.48,0.29c0.52,0.25,1.07,0.37,1.61,0.41l4.1,65.23
	c-0.42,0.04-0.83,0.13-1.23,0.25L1183.25,544.05z M1191.96,570.49c-0.88,0.35-1.69,0.89-2.36,1.61l-5.8-4.99l-0.51-21.25
	L1191.96,570.49z M1170.35,507.4l11.37-3.88l0.18,7.37l-6.97,9.52L1170.35,507.4z M1174.53,520.95l-11.79,16.11l-5.38-25.23
	l12.46-4.25L1174.53,520.95z M1238.84,550.52l-19.46,11.28l11.58-28.48l4.44-5.32l5.45,17.32c-0.87,0.34-1.61,1-2.04,1.91
	C1238.3,548.31,1238.36,549.51,1238.84,550.52z M1212.42,478.26l-19.58,18.93c-0.31-0.29-0.66-0.55-1.07-0.74
	c-0.7-0.33-1.43-0.44-2.15-0.39l-3-47.76l25.28,19.89c-0.29,0.4-0.56,0.83-0.78,1.3C1209.71,472.5,1210.33,475.94,1212.42,478.26z
	 M1212.26,467.76l-25.67-20.2l-0.53-8.5l28.02,17.27l2.14,8.9C1214.69,465.65,1213.3,466.52,1212.26,467.76z M1267.58,488.65
	l-8.52-5.25l2.67-10.59l11.17,9.48L1267.58,488.65z M1273.33,482.64l8.83,7.49l-3.61,5.28l-10.48-6.46L1273.33,482.64z
	 M1243.87,474.04l-5.17-3.19l6.53-0.75L1243.87,474.04z M1245.84,470.02l6.86-0.79c0.21,1.15,0.87,2.19,1.89,2.87l-3.65,6.3
	l-6.59-4.06L1245.84,470.02z M1244.17,474.88l6.5,4.01l-4.09,7.06l-5.35-2.53L1244.17,474.88z M1251.14,479.18l0.98,0.6l-2.99,7.36
	l-2.04-0.96L1251.14,479.18z M1252.6,480.08l1.8,1.11l-1.43,7.77l-3.34-1.58L1252.6,480.08z M1254.91,481.5l3.5,2.16l-1.77,7.03
	l-3.14-1.49L1254.91,481.5z M1255.02,480.91l1.49-8.11c1.36,0.16,2.72-0.33,3.67-1.31l1.07,0.91l-2.7,10.69L1255.02,480.91z
	 M1254.51,480.6l-1.7-1.05l2.82-6.94c0.11,0.04,0.21,0.09,0.32,0.11L1254.51,480.6z M1252.33,479.26l-0.91-0.56l3.65-6.3
	c0.02,0.01,0.03,0.02,0.04,0.03L1252.33,479.26z M1253.24,466.24l-5.2-2.61l2.66-7.72l4.18,8.71
	C1254.21,464.99,1253.65,465.55,1253.24,466.24z M1252.99,466.74c-0.27,0.63-0.37,1.29-0.34,1.94l-6.61,0.76l1.82-5.27
	L1252.99,466.74z M1245.43,469.51l-7.5,0.86l-13.86-8.54l3.76-7.72l19.53,9.8L1245.43,469.51z M1223.59,461.54l-9.03-5.57
	l-2.33-9.68l15.1,7.58L1223.59,461.54z M1223.82,462.34l13.21,8.14l-10.79,1.24c-0.37-2.42-1.84-4.63-4.15-5.85L1223.82,462.34z
	 M1226.3,472.28l11.5-1.33l5.88,3.63l-2.96,8.59l-15.05-7.11C1226.2,474.83,1226.4,473.54,1226.3,472.28z M1241.04,483.94l5.25,2.48
	l-15.08,26.05L1241.04,483.94z M1246.81,486.66l2.11,1l-14.45,35.54l-3.11-9.87L1246.81,486.66z M1235.2,527.38l-3.56,4.26
	l2.76-6.79L1235.2,527.38z M1234.73,524.03l14.69-36.14l3.45,1.63l-3.93,21.42l-13.31,15.92L1234.73,524.03z M1249.46,511.19
	l2.88-3.45l-8.27,32.79L1249.46,511.19z M1249.66,510.08l3.73-20.31l3.11,1.47l-3.85,15.26L1249.66,510.08z M1257.02,491.49
	l5.87,2.77l-9.41,11.26L1257.02,491.49z M1257.16,490.94l1.76-6.97l8.3,5.12l-3.96,4.73L1257.16,490.94z M1261.41,471.8l-0.85-0.72
	c0.17-0.23,0.32-0.48,0.45-0.75c0.72-1.52,0.47-3.24-0.47-4.51l3.03-2.59L1261.41,471.8z M1260.18,465.4
	c-0.36-0.37-0.78-0.69-1.27-0.93c-1.16-0.54-2.43-0.53-3.52-0.09l-4.42-9.22l8.57-24.88l8.88,13.78l-4.6,18.24L1260.18,465.4z
	 M1250.62,454.44l-11.38-23.73l8.86-18.17l11.05,17.14L1250.62,454.44z M1250.36,455.19l-2.82,8.19l-19.47-9.77l10.85-22.26
	L1250.36,455.19z M1227.57,453.37l-15.52-7.78l-10.77-44.72l21.98-2.16l15.35,32.02L1227.57,453.37z M1211.4,445.25l-25.77-12.93
	l-1.87-29.74l16.96-1.67L1211.4,445.25z M1211.57,445.96l2.31,9.59l-27.87-17.18l-0.34-5.41L1211.57,445.96z M1214.74,456.74
	l8.6,5.3l-1.75,3.58c-1.58-0.7-3.26-0.85-4.84-0.53L1214.74,456.74z M1225.43,476.57l15.1,7.14l-9.67,28.07l-9.86-31.33
	C1222.86,479.78,1224.47,478.44,1225.43,476.57z M1230.99,513.98l3.15,10.02l-3.67,9.03l-10.78,12.89l10.57-30.7L1230.99,513.98z
	 M1229.78,534.72l-11.19,27.53l-5.65,3.28l6.25-18.13L1229.78,534.72z M1235.82,527.5l12.91-15.44l-6.07,33.02
	c-0.44-0.05-0.87-0.02-1.28,0.08L1235.82,527.5z M1253.16,506.76l10.25-12.26l11.9,5.62l-31.14,45.45
	c-0.09-0.05-0.18-0.12-0.28-0.17c-0.14-0.07-0.29-0.11-0.44-0.16L1253.16,506.76z M1263.78,494.06l3.92-4.68l10.53,6.49l-2.6,3.79
	L1263.78,494.06z M1278.7,496.16l2.2,1.35l-2.31,3.54l-2.45-1.16L1278.7,496.16z M1281.37,497.81l31.73,19.55l-34-16.06
	L1281.37,497.81z M1281.2,497.05l-2.18-1.35l3.57-5.21l1.86,1.58L1281.2,497.05z M1282.47,489.67l-8.79-7.45l10.9-13.04l5.78,8.97
	L1282.47,489.67z M1273.26,481.85l-11.38-9.65l2.42-9.59l10.36-8.84l9.61,14.92L1273.26,481.85z M1264.54,461.67l4.28-16.98
	l5.54,8.59L1264.54,461.67z M1268.59,443.32l-8.83-13.71l12.3-35.71l9.23-0.91L1268.59,443.32z M1271.65,393.38l-14.92,1.47
	l21.8-44.72l6.89,3.26L1271.65,393.38z M1271.45,393.96l-12.07,35.05l-10.99-17.06l8.06-16.52L1271.45,393.96z M1248.03,411.41
	l-9.18-14.24l16.93-1.67L1248.03,411.41z M1247.74,411.99l-8.82,18.08l-15.08-31.43l14.38-1.41L1247.74,411.99z M1223.6,398.1
	l-20.39-42.51l5.51-4.17l29.17,45.28L1223.6,398.1z M1223,398.16l-21.86,2.15l-8.79-36.49l10.4-7.88L1223,398.16z M1200.59,400.37
	l-16.86,1.66l-1.9-30.22l10.04-7.61L1200.59,400.37z M1183.17,402.08l-3.32,0.33l-0.69-28.59l2.13-1.61L1183.17,402.08z
	 M1140.04,409.46c0.38-0.85,0.54-1.75,0.49-2.62l38.78-3.82l0.63,26.45L1140.04,409.46z M1179.96,430.11l0.11,4.61l-39.73-24.48
	L1179.96,430.11z M1179.3,402.46l-38.82,3.82c-0.13-0.87-0.46-1.69-0.95-2.42l39.09-29.63L1179.3,402.46z M1180.09,435.38l0.17,7.19
	l-40.79-32.11c0.02-0.03,0.04-0.06,0.06-0.09L1180.09,435.38z M1179.87,402.97l3.34-0.33l1.85,29.4l-4.54-2.28L1179.87,402.97z
	 M1185.09,432.68l0.34,5.34l-4.79-2.95l-0.11-4.68L1185.09,432.68z M1185.47,438.7l0.53,8.39l-5.17-4.07l-0.17-7.29L1185.47,438.7z
	 M1186.05,447.84l3.03,48.28c-1.34,0.25-2.54,1.11-3.17,2.43c-0.47,0.98-0.51,2.05-0.25,3.03l-3.4,1.16l-1.42-59L1186.05,447.84z
	 M1187.08,503.8l-4.64,6.34l-0.16-6.82l3.56-1.22C1186.11,502.76,1186.53,503.34,1187.08,503.8z M1181.92,511.8l0.73,30.55
	l-7.5-21.31L1181.92,511.8z M1190.18,504.8c1.54-0.1,2.99-0.99,3.69-2.49c0.76-1.62,0.45-3.46-0.63-4.73l19.57-18.93
	c0.61,0.59,1.32,1.09,2.13,1.47c0.44,0.21,0.89,0.36,1.34,0.49l-20.67,89.51c-0.45-0.08-0.9-0.12-1.34-0.11L1190.18,504.8z
	 M1216.83,480.74c1.23,0.24,2.48,0.18,3.65-0.14l10.09,32.05l-0.8,2.34l-32.3,55.78c-0.08-0.04-0.15-0.09-0.24-0.13
	c-0.35-0.17-0.71-0.29-1.07-0.39L1216.83,480.74z M1228.82,517.73l-10.12,29.39l-20.27,24.25c-0.15-0.12-0.31-0.22-0.47-0.32
	L1228.82,517.73z M1212.66,566.34l5.58-3.24l-1.09,2.69l-5.12,2.36L1212.66,566.34z M1219.04,562.65l20.08-11.64
	c0.37,0.54,0.87,1.01,1.51,1.31c1.91,0.9,4.18,0.08,5.08-1.82c0.77-1.63,0.28-3.53-1.08-4.61l31.18-45.51l2.46,1.16l-33.56,51.53
	l-26.82,12.39L1219.04,562.65z M1281.67,497.34l3.19-4.91l29.65,25.15L1281.67,497.34z M1284.74,491.6l-1.85-1.57l7.8-11.38
	l1.23,1.92L1284.74,491.6z M1291.04,478.15l22.95-33.5l0.08,1.92l-21.8,33.48L1291.04,478.15z M1290.71,477.64l-5.75-8.92
	l28.58-34.19l0.4,9.19L1290.71,477.64z M1284.65,468.23l-9.56-14.83l37.87-32.34l0.55,12.64L1284.65,468.23z M1274.78,452.93
	l-5.78-8.97l12.87-51.03l29.74-2.93l1.31,30.35L1274.78,452.93z M1281.43,392.41l-9.17,0.9l13.67-39.69l4.72,2.23L1281.43,392.41z
	 M1303.23,301.67l-17.63,51.18l-6.83-3.23l23.56-48.33C1302.63,301.44,1302.93,301.56,1303.23,301.67z M1295.97,285.29
	c-2.39,5.96,0.13,12.8,5.87,15.76l-23.57,48.34l-41.2-19.46L1295.97,285.29z M1236.57,330.31l41.45,19.58l-21.95,45.02l-17.56,1.73
	l-29.35-45.55L1236.57,330.31z M1185.63,306.24l50.37,23.8l-27.14,20.57l-26.32-40.85C1183.81,308.9,1184.89,307.71,1185.63,306.24z
	 M1182.08,310.08l26.34,40.88l-5.45,4.13l-21.44-44.71C1181.71,310.28,1181.9,310.19,1182.08,310.08z M1181.02,310.62l21.49,44.81
	l-10.29,7.8l-12.56-52.12C1180.12,310.98,1180.58,310.82,1181.02,310.62z M1179.12,311.23l12.61,52.36l-9.94,7.54l-3.75-59.74
	C1178.4,311.36,1178.76,311.31,1179.12,311.23z M1181.26,371.54l-2.1,1.59l-1.36-56.8L1181.26,371.54z M1173.87,310.85
	c1.06,0.39,2.16,0.58,3.24,0.59l1.49,62.11l-39.41,29.87c-0.52-0.62-1.17-1.15-1.96-1.52c-0.02-0.01-0.04-0.01-0.06-0.02
	L1173.87,310.85z M1139.12,410.91l41.15,32.39l1.43,59.63l-11.54,3.94l-33.22-94.41C1137.77,412.13,1138.52,411.6,1139.12,410.91z
	 M1136.24,412.7c0.06-0.02,0.12-0.04,0.17-0.05l33.22,94.4l-12.39,4.23L1136.24,412.7z M1157.38,544.37l-22.92-19.72
	c0.27-0.35,0.51-0.72,0.71-1.13c0.65-1.38,0.73-2.88,0.33-4.23l21.33-7.28l5.47,25.65L1157.38,544.37z M1157.8,544.74l4.65-6.35
	l2.7,12.67L1157.8,544.74z M1162.89,537.79l11.86-16.2l7.94,22.57l0.54,22.46l-17.38-14.96L1162.89,537.79z M1166.04,552.56
	l17.21,14.81l1.64,68.15c-0.38,0.02-0.76,0.07-1.14,0.13L1166.04,552.56z M1058.72,617.01l117.58,25.99
	c-0.54,2.88,0.3,5.95,2.49,8.17l-43.93,45.94l-79.35-74.02C1057.12,621.31,1058.19,619.21,1058.72,617.01z M1181.53,741.41
	l1.37,1.28l-3.38,12.4l-5.73-1.23L1181.53,741.41z M1181.38,740.51l0.26-0.35l-0.23,0.37L1181.38,740.51z M1173.2,753.73l-1.45-0.31
	l9.3-12.46l0.06,0.06L1173.2,753.73z M1171.15,753.29l-0.53-0.11l6.99-8.55L1171.15,753.29z M1170.01,753.05l-72.91-15.64
	l37.78-39.51l45.51,42.45L1170.01,753.05z M1055.13,623.51l79.35,74.01l-38.01,39.75l-28.17-6.04l-7.92-8.94l-13.14-94.69
	C1050.15,627.14,1052.93,625.78,1055.13,623.51z M1045.33,787.1l-11.84-11.58l2.7-36.93l20.84,10.73l6.14,22.79l-13.42,14.04
	L1045.33,787.1z M1049.05,786.86l-1.92,2l-1.33-1.3L1049.05,786.86z M1035.65,738.3l-2.68,36.7l-6.65-6.5l8.92-30.41L1035.65,738.3z
	 M1035.39,737.55l0.41-1.4l-0.11,1.55L1035.39,737.55z M1033.43,776.24l11.24,11l-12.24,2.65L1033.43,776.24z M1036.55,733.62
	l0.79-2.68l17.78,11.3l1.71,6.36l-20.6-10.61L1036.55,733.62z M1036.28,729.61l-9.14-5.8c0.14-0.24,0.28-0.49,0.4-0.74l9.08,1.95
	L1036.28,729.61z M1063.3,747.43l0.67,4.84l-6.47-3.33l-1.69-6.26L1063.3,747.43z M1055.6,741.88l-3.66-13.58l8.97,1.92l2.29,16.48
	L1055.6,741.88z M1064.07,752.94l2.21,15.91l-2.66,2.78l-5.92-21.97L1064.07,752.94z M1064.67,753.25l11.06,5.7l-8.97,9.38
	L1064.67,753.25z M1064.58,752.58l-0.66-4.76l13.97,8.88l-1.75,1.83L1064.58,752.58z M1078.37,757l22.3,14.16l-24.01-12.37
	L1078.37,757z M1078.29,756.29l-14.47-9.19l-2.32-16.75l6.51,1.4l16.23,18.32L1078.29,756.29z M1061.41,729.76l-0.9-6.46l6.86,7.74
	L1061.41,729.76z M1060.83,729.63l-9.05-1.94l-5.52-20.49l13.59,15.33L1060.83,729.63z M1054.9,741.43l-17.41-11.06l1.43-4.87
	l12.4,2.66L1054.9,741.43z M1038.54,724.85l-1.33-0.29l1.86-25.48l5.28,5.96L1038.54,724.85z M1038.38,725.39l-1.37,4.68l-0.19-0.12
	l0.35-4.82L1038.38,725.39z M1036.84,730.62l-0.11,0.36l0.03-0.41L1036.84,730.62z M1063.33,772.73l2.66,9.89l-15.28,3.31
	L1063.33,772.73z M1063.78,772.26l2.59-2.71l1.75,12.61l-1.58,0.34L1063.78,772.26z M1068.2,782.71l1.7,12.27l-3.22-11.95
	L1068.2,782.71z M1066.86,769.04l9.39-9.82l26.96,13.88c-0.19,0.48-0.26,1-0.2,1.5l-34.34,7.44L1066.86,769.04z M1078.77,756.59
	l5.84-6.11l19.2,21.67c-0.03,0.03-0.06,0.05-0.09,0.09c-0.04,0.04-0.06,0.09-0.1,0.14L1078.77,756.59z M1068.92,731.94l27.09,5.81
	l-11.39,11.91L1068.92,731.94z M1046.69,627.69l13.02,93.86L1045.94,706l-0.64-2.37c0-0.59,0-1.16,0-1.75
	c0.02-40.23,0.01-62.16-0.02-74.11C1045.75,627.77,1046.22,627.74,1046.69,627.69z M1045.02,704.73l0.09,0.33l-0.14-0.16
	L1045.02,704.73z M1045.43,706.27l5.73,21.29l-12.08-2.59l5.7-19.43L1045.43,706.27z M1044.78,627.77
	c-0.03,12.12-0.04,34.5-0.02,75.86l-0.23,0.78l-5.41-6.1l5.16-70.54C1044.45,627.78,1044.61,627.77,1044.78,627.77z M1036.26,624.72
	c2.21,1.76,4.81,2.76,7.47,3l-5.12,70.01l-32.5-36.67L1036.26,624.72z M1005.38,661.07l-4.99,6.01l-6.85-19.37L1005.38,661.07z
	 M958.54,711.16l-7.75,11.81l-3.84-13.37l3.78-15.03l13.97,7.2l-0.4,0.6c-1.49,0.26-2.91,0.99-4.02,2.18
	C958.57,706.39,958,708.89,958.54,711.16z M937.32,687.67l3.22,1.66l5.83,20.29l-5.82,23.15L937.32,687.67z M940.42,738.77
	l-1.31,1.99l1.13-4.48L940.42,738.77z M936.41,674.92l2.5,8.69l-1.93-0.84L936.41,674.92z M936.7,686.72l-6.01-3.09l1.2-2.46
	l4.55,1.98L936.7,686.72z M939.1,684.31l1.23,4.29l-3.06-1.58l-0.26-3.62L939.1,684.31z M941.02,688.95l-1.25-4.35l11.62,5.06
	l-1.03,4.09L941.02,688.95z M950.22,694.31l-3.58,14.23l-5.41-18.86L950.22,694.31z M946.68,710.68l3.71,12.91L940.93,738
	l-0.25-3.46L946.68,710.68z M950.59,724.3l13.47,46.93l-19.39,18.99l-3.68-51.29L950.59,724.3z M950.87,694.02l1.04-4.13l16.02,6.98
	l-2.91,4.44L950.87,694.02z M968.44,697.09l5.19,2.26l-3.65,4.4c-0.83-0.64-1.76-1.07-2.73-1.29l-1.74-0.89L968.44,697.09z
	 M1007.98,718.3l-17.07-3.66l-11.58-5.96l-1.31-7.41l30.72,13.38C1008.26,715.82,1008,717.06,1007.98,718.3z M1009.82,724.38
	l-17.01-8.76l15.19,3.26C1008.06,720.81,1008.68,722.73,1009.82,724.38z M972.7,710.73c0.33-1.9-0.1-3.89-1.28-5.5l2.62,1.35
	l-0.17,4.4L972.7,710.73z M973.85,711.55l-0.21,5.43l-2.7-2.64c0.82-0.9,1.37-1.96,1.65-3.06L973.85,711.55z M970.42,704.09
	l3.74-4.5l0.16,0.07l-0.25,6.31L970.42,704.09z M974.15,718.26l7.64,7.47l1.73,9.79l-9.5-14.04L974.15,718.26z M974.17,717.51
	l0.23-5.84l5.09,1.09l2.13,12.03L974.17,717.51z M974.42,711.1l0.17-4.24l4.24,2.18l0.55,3.12L974.42,711.1z M979.45,709.37
	l9.37,4.82l-8.85-1.9L979.45,709.37z M978.71,708.36l-4.09-2.11l0.25-6.36l2.54,1.11L978.71,708.36z M974.36,698.46L974,698.9
	l-5.25-2.29l6.04-9.21L974.36,698.46z M970.54,714.74l3.06,3l-0.12,2.96l-3.64-5.38C970.1,715.14,970.32,714.95,970.54,714.74z
	 M973.98,722.42l9.77,14.45l2.27,12.85l-13.63,13.35L973.98,722.42z M984.52,738l5.37,7.93l-3.38,3.31L984.52,738z M990.21,746.41
	l27.81,41.12c0,1.79,0,3.61,0,5.49l-22.88,4.95l-8.51-48.06L990.21,746.41z M984.28,736.66l-1.82-10.26l13.69,13.39l-5.87,5.75
	L984.28,736.66z M982.3,725.46l-2.23-12.57l10.64,2.28l19.94,10.27c0.03,0.03,0.05,0.06,0.08,0.09l-14.17,13.88L982.3,725.46z
	 M1010.49,711.77c-0.63,0.73-1.14,1.54-1.53,2.37l-31.06-13.53l-0.81-4.56l23.1-27.85l14.39,40.69
	C1013.05,709.47,1011.64,710.43,1010.49,711.77z M999.98,667.58l-23.01,27.75l-1.58-8.93c0-17.06,0-30.89-0.01-42.11
	c0-6.54,0.01-12.18,0.01-17.06l17.18,19.38L999.98,667.58z M999.5,496.24l27.73,1.58c-0.04,1.12,0.11,2.25,0.43,3.35l-33.89,11.01
	c-0.2-0.52-0.46-1.03-0.8-1.5c-0.44-0.6-0.96-1.1-1.54-1.5L999.5,496.24z M984.12,509.26c-0.51,0.37-0.95,0.81-1.32,1.29
	l-17.33-12.07c0.82-1.23,1.32-2.64,1.46-4.09l31.93,1.81l-7.91,12.67C988.86,507.7,986.19,507.76,984.12,509.26z M987.15,520.69
	c1.2,0.13,2.43-0.07,3.55-0.64l18.58,33.09c-0.06,0.04-0.12,0.06-0.18,0.1c-1.89,1.36-2.3,3.99-0.94,5.87
	c0.11,0.16,0.25,0.29,0.38,0.42l-28.49,31.09c-1.04-0.89-2.24-1.44-3.5-1.68L987.15,520.69z M977.38,603.68l14.68,41.52
	l-16.68-18.83c0-10.94,0-17.91-0.01-22.35C976.05,604,976.73,603.89,977.38,603.68z M975.28,689.02l1.22,6.87l-1.56,1.88
	L975.28,689.02z M976.63,696.6l0.66,3.74l-2.4-1.05l0.02-0.61L976.63,696.6z M973.52,603.87c0.45,0.1,0.91,0.15,1.37,0.16
	c-0.02,4.37-0.04,11.16-0.05,21.73l-5.31-6L973.52,603.87z M969.36,620.42l5.48,6.18c-0.01,11.88-0.02,28.39-0.01,51.36
	c0,2.7,0,5.49,0,8.37l-6.6,10.06l-16.19-7.05L969.36,620.42z M938,585.02l30.92,34.9l-17.39,69.2l-11.96-5.21l-3.35-11.67
	c0-10.71,0-20.14-0.01-28.46c0.02-37.7,0.01-52.37-0.03-58.08C936.82,585.65,937.46,585.42,938,585.02z M936.39,682.52l-4.25-1.85
	l3.6-7.34L936.39,682.52z M935.71,589.88c-0.04,8.28-0.05,25.31-0.04,60.31c0,6.67,0,13.98,0,22.02l-4.03,8.23l-1.96-0.85
	L935.71,589.88z M929.63,680.18l1.75,0.76l-1.19,2.43l-0.75-0.39L929.63,680.18z M929.4,683.59l0.55,0.28l-0.66,1.35L929.4,683.59z
	 M929.19,686.69l1.25-2.56l6.3,3.24l3.38,47.13l-1.93,7.68L924,763.81L929.19,686.69z M923.38,764.75l-10.47,15.96l-9.46-41.48
	l25.09-51.23L923.38,764.75z M929.09,679.94l-0.19,2.76l-35.88-18.48L929.09,679.94z M890.41,665.01c0.3-0.35,0.55-0.72,0.77-1.1
	l37.68,19.4l-0.22,3.23l-25.39,51.84l-16.24-71.24C888.29,666.8,889.48,666.08,890.41,665.01z M885.33,667.37
	c0.38-0.01,0.76-0.04,1.14-0.11l16.39,71.91l-10.97,22.4l-6.4-11.14C885.47,698.95,885.41,676.85,885.33,667.37z M886.06,752.54
	l5.54,9.64l-1.87,3.82L886.06,752.54z M899.35,801.38l-9.41-34.56l1.99-4.05l15.29,26.62L899.35,801.38z M892.23,762.16l10.83-22.12
	l9.42,41.33l-4.92,7.49L892.23,762.16z M917.54,806.21l-9.66-16.81l4.78-7.28l5.45,23.92C917.91,806.09,917.72,806.15,917.54,806.21
	z M918.65,805.92l-5.57-24.45l10.22-15.58l-2.68,39.87C919.96,805.74,919.3,805.79,918.65,805.92z M921.17,805.8l2.75-40.86
	l13.85-21.11l-15.61,62.12C921.84,805.88,921.51,805.83,921.17,805.8z M926.01,807.87c-0.99-0.86-2.12-1.44-3.3-1.78l16-63.68
	l1.79-2.72l3.66,51.04l-17.82,17.45C926.22,808.07,926.12,807.97,926.01,807.87z M928.75,812.34c-0.34-1.38-1.02-2.68-2.03-3.77
	l17.48-17.11l1.24,17.27L928.75,812.34z M965.3,799.47l-0.51,5.06l-18.8,4.07l-1.27-17.67l19.52-19.11l1.06,3.7
	C965.3,782.71,965.3,790.66,965.3,799.47z M965.3,773.51l-0.61-2.12l0.61-0.6C965.3,771.69,965.3,772.59,965.3,773.51z
	 M965.3,770.01l-0.79,0.77l-13.52-47.1l7.75-11.82c0.37,1.08,1,2.08,1.9,2.91c1.32,1.23,2.98,1.87,4.66,1.93
	c-0.01,5.62,0,15.53,0.01,33C965.31,755.58,965.3,762.31,965.3,770.01z M965.37,804.41l0.06-0.59l0.02,0.57L965.37,804.41z
	 M965.03,702.28l0.17-0.25l0.46,0.23C965.45,702.26,965.24,702.27,965.03,702.28z M965.77,716.72c1.26-0.03,2.51-0.4,3.62-1.09
	l4.06,6.01l-1.64,41.99l-5.97,5.84C965.85,739.3,965.82,724.24,965.77,716.72z M965.99,804.28l-0.12-4.01l2.92,3.4L965.99,804.28z
	 M970.23,804.48l-0.4-0.47l0.42-0.09L970.23,804.48z M970.27,803.35l-0.86,0.19l-3.56-4.15c0-2.37,0-4.67,0-6.93
	c0-5.33,0-10.32,0-14.99l4.78,16.64L970.27,803.35z M970.7,792.33l-4.85-16.89c0-1.78,0-3.51,0-5.19l5.94-5.81L970.7,792.33z
	 M971.12,795.82l1.99,6.92l-2.28,0.49L971.12,795.82z M970.76,805.1l0.05-1.3l2.45-0.53l2.05,7.14L970.76,805.1z M980.97,828.09
	l-4.42-15.38l4.42,5.15C980.97,821.07,980.97,824.48,980.97,828.09z M980.97,817.01l-4.79-5.58l-2.38-8.27l7.17-1.55
	C980.98,806.12,980.98,811.23,980.97,817.01z M981.49,770.1c0.76-0.06,1.5-0.4,2.05-1.02c1.11-1.26,0.99-3.19-0.27-4.3
	c-1.26-1.11-3.19-0.99-4.3,0.27c-1.11,1.26-0.99,3.19,0.27,4.3c0.53,0.47,1.17,0.71,1.83,0.75c-0.04,3.89-0.07,12.39-0.08,30.94
	l-7.32,1.59l-2.46-8.58l1.18-30.16l13.78-13.49l8.45,47.71l-13.06,2.83C981.53,782.42,981.52,773.96,981.49,770.1z M990.08,827.62
	l-8.55-9.97c0-6.09,0-11.45,0.01-16.17l13.16-2.85l4.07,23L990.08,827.62z M1013.03,811.8l-13.76,9.48l-4.03-22.77l22.78-4.93
	c0,0.41,0,0.82,0,1.23L1013.03,811.8z M1013.76,811.3l4.26-14.51c0,3.68,0,7.54,0,11.57L1013.76,811.3z M1018.01,786.53l-27.4-40.52
	l5.95-5.83l21.46,20.99C1018.02,768.36,1018.01,776.75,1018.01,786.53z M1018.02,760.39l-21.06-20.6l14.17-13.87
	c0.14,0.13,0.27,0.27,0.42,0.4c1.63,1.41,3.58,2.21,5.56,2.44l0.97,0.5C1018.05,735.47,1018.04,745.19,1018.02,760.39z
	 M1015.12,708.7l-14.51-41.02l5.14-6.2l32.8,37.02l-1.9,25.94l-8.87-1.9c1.71-4.01,0.73-8.83-2.75-11.84
	C1022.21,708.26,1018.43,707.64,1015.12,708.7z M1018.53,728.81c2.81-0.07,5.59-1.26,7.57-3.56c0.27-0.32,0.52-0.65,0.74-0.98
	l9.39,5.96l-0.24,3.28l-1.11,3.77l-16.36-8.42C1018.53,728.85,1018.53,728.83,1018.53,728.81z M1018.53,729.49l16.2,8.34
	l-8.87,30.23l-7.29-7.13C1018.57,745.6,1018.55,735.78,1018.53,729.49z M1018.57,761.71l7.11,6.96l-5.98,20.37l-1.14-1.68
	C1018.57,777.46,1018.57,768.97,1018.57,761.71z M1018.58,792.89L1018.58,792.89c-0.01-1.55-0.01-3.06-0.01-4.54l0.93,1.38
	L1018.58,792.89z M1019.2,792.76l0.71-2.43l1.34,1.98L1019.2,792.76z M1031.34,797.17c-1.81-0.08-3.62,0.39-5.2,1.39l-3.98-5.88
	l9.65-2.09L1031.34,797.17z M1021.84,792.18l-1.72-2.55l6.02-20.53l6.77,6.63l-1.04,14.28L1021.84,792.18z M1031.9,797.22l0.49-6.75
	l12.76-2.76l1.6,1.56l-9.76,10.21C1035.52,798.16,1033.73,797.41,1031.9,797.22z M1067.5,813.09l-27.64-5.44
	c0.45-2.76-0.39-5.67-2.47-7.78l9.76-10.21l21.57,21.09C1068.1,811.44,1067.71,812.25,1067.5,813.09z M1069.12,810.36l-21.58-21.11
	l2.49-2.6l16.12-3.49l4.38,16.25l1.33,9.57C1070.85,809.17,1069.9,809.63,1069.12,810.36z M1072.4,808.9l-0.72-5.18l1.39,5.16
	C1072.84,808.88,1072.62,808.88,1072.4,808.9z M1144.72,783.99l-38.57,16.18c0.01-8.62,0.02-14.35,0.02-18.16
	c-0.03,3.87-0.05,9.63-0.09,18.18l-28.19,11.83c-0.29-0.61-0.69-1.18-1.21-1.67c-0.87-0.81-1.93-1.28-3.03-1.44l-2.59-9.62
	l-2.32-16.71l34.38-7.45c0.16,0.52,0.46,1.01,0.9,1.39c0.62,0.54,1.4,0.77,2.15,0.73c0,1.1-0.01,2.62-0.01,4.74
	c0.01-2.08,0.03-3.61,0.04-4.74c0.79-0.05,1.56-0.4,2.12-1.04c1.1-1.28,0.96-3.2-0.32-4.3c-1.1-0.95-2.67-0.97-3.79-0.14
	l-19.23-21.7l11.66-12.19l72.96,15.65L1144.72,783.99z M1149.85,781.83l-4.04,1.69l24.41-29.86l0.56,0.12L1149.85,781.83z
	 M1157.79,778.5l-6.93,2.91l20.52-27.5l1.51,0.32L1157.79,778.5z M1175.11,771.24l-16.43,6.89l14.78-23.77l5.9,1.27L1175.11,771.24z
	 M1175.77,770.96l4.15-15.22l15.26,3.27c-0.21,1.22-0.09,2.49,0.34,3.66L1175.77,770.96z M1196.78,755.64
	c-0.73,0.85-1.23,1.82-1.49,2.84l-15.23-3.27l3.3-12.09L1196.78,755.64z M1183.06,742.08l-1.24-1.15l2.76-4.44L1183.06,742.08z
	 M1185.09,734.61l-4.34,5.31l-45.48-42.42l43.92-45.93c1.72,1.55,3.88,2.33,6.03,2.36C1185.16,664.54,1185.11,687.02,1185.09,734.61
	z M1185.45,635.52l-1.62-67.65l5.42,4.66c-0.3,0.38-0.57,0.8-0.79,1.26c-1.55,3.29-0.15,7.22,3.14,8.78
	c0.54,0.26,1.11,0.43,1.67,0.53l-6.96,52.47C1186.03,635.53,1185.74,635.52,1185.45,635.52z M1186.87,635.63l6.95-52.47
	c2.68,0.24,5.34-1.17,6.55-3.75c0.83-1.74,0.81-3.66,0.13-5.32l10.58-4.89l-22.98,66.72C1187.7,635.81,1187.29,635.7,1186.87,635.63
	z M1211.79,568.89l5.06-2.34l-27.86,68.54L1211.79,568.89z M1189.09,636.3l28.5-70.1l26.55-12.26l-53.99,82.91
	C1189.81,636.64,1189.45,636.47,1189.09,636.3z M1191.84,638.19c-0.07-0.07-0.13-0.14-0.2-0.21c-0.33-0.3-0.67-0.57-1.03-0.82
	l54.48-83.66l69.71-32.19c0.08,0.13,0.17,0.25,0.26,0.37L1191.84,638.19z M1315.33,517.54l-30.15-25.58l7.09-10.88l23.34,36.22
	C1315.5,517.38,1315.41,517.45,1315.33,517.54z M1316.07,517l-23.47-36.43l21.51-33.04l2.99,69.13
	C1316.74,516.71,1316.39,516.83,1316.07,517z M1314.51,443.89l26.4-38.54l-26.32,40.42L1314.51,443.89z M1350.88,392.44
	c0.32,0.15,0.65,0.27,0.99,0.38l-33.81,123.87c-0.13-0.02-0.27-0.05-0.4-0.06l-3.02-69.91l35.58-54.64
	C1350.43,392.21,1350.65,392.34,1350.88,392.44z M1349.6,391.68l-35.13,51.28l-0.39-9.06l35.39-42.33
	C1349.51,391.61,1349.56,391.64,1349.6,391.68z M1349.04,391.21l-35,41.86l-0.54-12.47l35.02-29.9
	C1348.69,390.88,1348.86,391.05,1349.04,391.21z M1348.17,390.28l-34.69,29.62l-1.3-29.95l34.41-3.39
	C1346.77,387.92,1347.31,389.2,1348.17,390.28z M1347.14,382.54c-0.49,1.13-0.68,2.32-0.61,3.47l-34.37,3.38l-1.03-23.87
	L1347.14,382.54z M1311.6,389.45l-29.57,2.91l9.15-36.26l19.38,9.16L1311.6,389.45z M1310.52,364.62l-19.21-9.08l13.47-53.42
	c1.01,0.23,2.04,0.33,3.05,0.3L1310.52,364.62z M1312.92,278.61c-2.16-1.02-4.46-1.35-6.67-1.11l30.91-23.43l5.55,3.38l-26.09,23.85
	C1315.58,280.21,1314.35,279.29,1312.92,278.61z M1320.08,289.91c-0.01-3.01-1.1-5.93-3.08-8.21l26.21-23.95l29.51,17.95
	l-15.83,14.95L1320.08,289.91z M1351.77,299.66c-0.19-0.87-0.6-1.67-1.16-2.33l6.49-6.13l38.4,0.77c0,0.08,0.01,0.15,0.02,0.23
	L1351.77,299.66z M1395.51,291.41l-37.83-0.75l15.52-14.66l22.76,13.84C1395.71,290.31,1395.56,290.84,1395.51,291.41z
	 M1400.02,287.6c-0.07-0.01-0.13-0.02-0.2-0.03c-1.47-0.05-2.79,0.66-3.57,1.78l-22.62-13.76l26.19-24.73l5.53,1.09L1400.02,287.6z
	 M1405.43,251.4l-5.12-1.01l2.46-2.33c0.79,0.76,1.8,1.31,2.93,1.53L1405.43,251.4z M1405.36,238.16l-6.8-21.8
	c1.19-0.4,2.24-1.08,3.09-1.96l25.05,21.83l-14.46,5.32c-0.87-2.04-2.85-3.5-5.2-3.58C1406.46,237.95,1405.9,238.02,1405.36,238.16z
	 M1445.94,259.35l-39.96-7.85l0.27-1.83c0.13,0.01,0.27,0.03,0.4,0.03c2.51,0.08,4.7-1.43,5.61-3.62l33.95,12.24
	C1446.11,258.67,1446.02,259.01,1445.94,259.35z M1448.12,254.9c-0.72,0.87-1.3,1.84-1.71,2.91l-33.96-12.24
	c0.15-0.49,0.24-1,0.26-1.53c0.02-0.68-0.08-1.34-0.28-1.95l14.75-5.43L1448.12,254.9z"/>
</symbol>
<symbol id="artwork02" viewBox="0 0 1600 830" preserveAspectRatio="xMaxYMax slice">
	<path class="st0" d="M1584.38,745.85c-0.97,0.29-1.83,0.79-2.53,1.43l-10-9.93c0.81-0.98,1.11-2.34,0.67-3.63
	c-0.68-1.98-2.84-3.03-4.82-2.35c-1.98,0.68-3.03,2.84-2.35,4.82c0.68,1.98,2.84,3.03,4.81,2.35c0.45-0.15,0.85-0.39,1.19-0.68
	l10,9.93c-1.46,1.64-2.08,3.98-1.4,6.24c0.21,0.72,0.54,1.37,0.96,1.95l-49.94,39.85l-31.47-13.16c0.55-1.45,0.65-3.08,0.18-4.67
	c-1.15-3.89-5.24-6.11-9.13-4.95c-2.47,0.73-4.27,2.66-4.95,4.96l-8.76-2.14c0.02-33.06,0-50.1-0.04-58.88
	c4.54-0.15,8.35-3.68,8.72-8.32c0.4-4.99-3.31-9.35-8.29-9.75c-3.97-0.32-7.53,1.97-9.03,5.43l-57.93-22.44l-17.14-49.65
	c1.79-0.76,3.11-2.46,3.28-4.53c0.24-2.96-1.97-5.56-4.93-5.79c-1.72-0.14-3.31,0.55-4.39,1.73l-24.82-20.59
	c0.96-1.38,0.95-3.27-0.16-4.65c-0.69-0.87-1.68-1.35-2.71-1.44l-0.18-33.61c0.8-0.07,1.59-0.37,2.27-0.91
	c1.82-1.46,2.1-4.11,0.65-5.93c-1.46-1.81-4.12-2.11-5.93-0.64c-1.82,1.46-2.1,4.11-0.65,5.93c0.76,0.94,1.84,1.46,2.96,1.55
	l0.18,33.62c-0.73,0.07-1.45,0.35-2.07,0.84c-0.63,0.5-1.06,1.16-1.28,1.87l-13.78-3.01c0.09-0.81-0.14-1.65-0.69-2.33
	c-1.1-1.38-3.11-1.59-4.48-0.49c-1.38,1.11-1.6,3.11-0.49,4.49c1.11,1.37,3.11,1.59,4.48,0.49c0.49-0.4,0.83-0.91,1.02-1.47
	l13.8,3.01c-0.13,1.01,0.14,2.07,0.83,2.92c1.35,1.68,3.81,1.95,5.49,0.6c0.11-0.09,0.21-0.2,0.31-0.3l24.83,20.6
	c-0.46,0.66-0.78,1.43-0.91,2.27l-53.4-5.61c0.04-1.13-0.29-2.27-1.05-3.21c-1.28-1.59-3.35-2.16-5.19-1.62l-8.7-23.17
	c0.68-0.29,1.33-0.66,1.93-1.15c3.53-2.84,4.09-8,1.26-11.53c-2.84-3.54-8-4.1-11.53-1.26c-3.53,2.83-4.1,8-1.26,11.53
	c2.2,2.73,5.79,3.68,8.94,2.65l8.7,23.18c-0.35,0.16-0.7,0.36-1.02,0.61c-0.41,0.33-0.73,0.72-1,1.14l-52.25-29.14
	c0.99-2.05,0.79-4.57-0.73-6.47c-2.11-2.63-5.94-3.04-8.56-0.93c-2.63,2.11-3.05,5.94-0.94,8.56c2.11,2.63,5.95,3.05,8.57,0.94
	c0.54-0.43,0.98-0.94,1.33-1.49l52.25,29.14c-0.76,1.63-0.6,3.62,0.6,5.11c0.28,0.34,0.6,0.62,0.94,0.87l-8.64,13.81
	c-2.38-1.37-5.46-1.23-7.73,0.59c-2.96,2.38-3.43,6.71-1.05,9.67c1.59,1.99,4.07,2.85,6.42,2.48l3.61,18.21
	c-0.49,0.14-0.97,0.38-1.4,0.72c-1.73,1.39-2,3.92-0.61,5.65c1.38,1.73,3.91,2.01,5.65,0.61c1.73-1.39,2-3.91,0.62-5.64
	c-0.9-1.11-2.25-1.62-3.57-1.47l-3.61-18.22c0.91-0.24,1.79-0.66,2.57-1.29c0.87-0.7,1.52-1.58,1.96-2.53l44.67,17.3l-59.58,81.75
	c-1.11-0.74-2.42-1.22-3.85-1.33c-4.48-0.36-8.41,2.98-8.76,7.46c-0.24,2.94,1.13,5.64,3.36,7.25l-21.04,32.07l-123.71,8.23
	c-0.37-3.21-2.91-5.85-6.26-6.22c-3.88-0.42-7.37,2.38-7.79,6.27c-0.43,3.88,2.38,7.37,6.26,7.79c2.73,0.3,5.27-1,6.68-3.15
	L1191.9,830h1.39l-44.16-25.95c0.07-0.14,0.15-0.29,0.21-0.43l69.38,26.39h1.98l-71.11-27.04c0.01-0.04,0.02-0.09,0.04-0.13
	l108.2,26.97c0,0.07,0,0.14,0,0.2h0.52c0-0.02,0-0.05,0-0.07l0.3,0.07h2.9l-3.2-0.8c-0.01-1.67-0.01-3.14-0.02-4.43
	c2.66-0.04,5.06-1.26,6.68-3.19l10.85,8.42h1.11l-11.54-8.96c0.81-1.13,1.37-2.46,1.57-3.92l17.81,1.86l-4.28,11.02h0.75l4.25-10.94
	l13.5,1.41c0,3.04,0,6.22,0.01,9.54h0.65c0-3.29,0-6.45-0.01-9.47l27.61,2.88l6.33,6.59h0.98l-6.22-6.47l27.89,2.91l-1.12,3.57h0.74
	l1.1-3.49l4.04,0.42l2.58,3.07h0.9l-2.49-2.97l4.27,0.44l4.84,2.52h1.52l-4.46-2.32l22.29,2.32h6.79l-30.78-3.21l-8.23-4.29
	l20.8-66.01l0.14-0.07l14.35,0.54c0.09,2,1.64,3.67,3.68,3.83c0.09,0.01,0.18-0.01,0.27-0.01l10.39,69.21h0.71l-10.39-69.26
	c1.45-0.24,2.65-1.25,3.14-2.63l37.67,9.21l1.69,4.91L1408.91,830h0.8l31.3-56.88l17.81,51.59l-41.24,5.29h5.52l35.96-4.61
	l1.59,4.61h0.74l-1.62-4.7l7.14-0.92l-1.96,5.62h0.75l1.99-5.72l40.91-5.25l-5.9,10.97h0.8l5.95-11.08l46.82-6.01
	c0.07,0.45,0.16,0.9,0.3,1.34c1.68,5.68,7.66,8.92,13.34,7.24c5.68-1.69,8.92-7.66,7.24-13.34c-1.68-5.68-7.65-8.92-13.33-7.23
	c-3.09,0.91-5.45,3.1-6.7,5.82l-25.4-10.62l49.64-39.61c1.64,1.84,4.25,2.68,6.77,1.93c3.48-1.03,5.46-4.69,4.43-8.16
	C1591.51,746.81,1587.86,744.82,1584.38,745.85z M1258.89,806.96c-4.91-0.39-9.21,3.27-9.61,8.18c-0.4,4.92,3.27,9.21,8.18,9.61
	c0.12,0.01,0.24,0.01,0.36,0.01c0,1.26,0,2.69,0,4.32l-108.03-26.93c0.04-0.2,0.07-0.4,0.1-0.6c0.03-0.3,0.04-0.59,0.04-0.88
	l123.18-8.2l-10.33,15.75C1261.63,807.52,1260.31,807.07,1258.89,806.96z M1263.36,808.6l10.63-16.2l18.86-1.25
	c0.18,1.07,0.86,1.99,1.82,2.48l-1.82,4.7l-26.82,13.26C1265.36,810.41,1264.46,809.39,1263.36,808.6z M1299.03,794
	c0,0.42,0,0.84,0,1.27l-5.26,2.6l1.55-3.98c0.18,0.05,0.35,0.09,0.54,0.11c0.93,0.1,1.81-0.18,2.49-0.71L1299.03,794z
	 M1298.86,792.8c0.06-0.08,0.11-0.17,0.17-0.25c0,0.14,0,0.28,0,0.43L1298.86,792.8z M1285.08,818.3l-18-1.88
	c0.1-1.49-0.18-2.93-0.75-4.21l26.13-12.92L1285.08,818.3z M1285.8,818.38l7.59-19.54l5.64-2.79c0,6.78,0,14.63,0.01,23.71
	L1285.8,818.38z M1299.03,788.58c-0.55-0.78-1.41-1.33-2.43-1.45c-1.89-0.21-3.6,1.17-3.8,3.06c-0.01,0.08,0,0.17,0,0.25
	l-18.33,1.22l20.75-31.63c1.04,0.62,2.23,1.03,3.51,1.13c0.11,0.01,0.23,0.01,0.34,0.01
	C1299.05,766.4,1299.03,774.86,1299.03,788.58z M1499.21,783.31l31.12,13.02l-12.04,9.6c-1.48-1.64-3.81-2.39-6.07-1.72
	c-0.53,0.16-1.02,0.39-1.47,0.67l-13.66-19C1498,785.19,1498.72,784.31,1499.21,783.31z M1475.76,716.95
	c0.18,0.01,0.36,0.01,0.54,0.02c-0.06,8.79-0.1,25.8-0.13,58.72l-32.23-7.88l28.5-51.79
	C1473.45,716.52,1474.57,716.85,1475.76,716.95z M1468.23,711.62l-40.75,20.15l-3.49-10.1l43.83-11.17
	C1467.93,710.88,1468.06,711.26,1468.23,711.62z M1467.93,704.99c-0.24,0.7-0.41,1.44-0.47,2.21c-0.07,0.9-0.01,1.77,0.17,2.61
	L1423.76,721l-13.2-38.23L1467.93,704.99z M1423.08,721.17l-35.77,9.11l4.06-12.89c0.01-17.02,0.02-30.83,0.02-42.05l18.32,7.09
	L1423.08,721.17z M1392.46,632.47l16.95,49.1l-18.02-6.98c0-24.18-0.02-36.08-0.07-41.93
	C1391.72,632.64,1392.1,632.57,1392.46,632.47z M1390.6,632.65c0.09,0.01,0.19,0.01,0.28,0.01c-0.06,5.85-0.1,17.71-0.14,41.68
	l-26.17-10.14l23.59-32.37C1388.88,632.29,1389.71,632.58,1390.6,632.65z M1317.9,640.1c-0.4-0.5-0.86-0.92-1.35-1.27l8.63-13.8
	c1.67,0.89,3.78,0.76,5.35-0.5c0.95-0.77,1.52-1.83,1.72-2.95l53.41,5.62c-0.01,0.34,0.02,0.67,0.07,1l-66.54,14.49
	C1318.95,641.75,1318.53,640.88,1317.9,640.1z M1319.06,646.57c0.34-1.04,0.44-2.14,0.27-3.22l66.56-14.49
	c0.31,1.01,0.91,1.9,1.7,2.56l-23.7,32.52L1319.06,646.57z M1364.14,664.79l26.6,10.3c-0.02,11.22-0.03,25.04-0.04,42.09l-4.19,13.3
	l-79.34,20.22c-0.48-1.59-1.43-3-2.72-4.02L1364.14,664.79z M1304.87,759.05c1.47-1.34,2.45-3.21,2.63-5.34l70.23,2.65l-53.06,26.23
	L1304.87,759.05z M1356.57,821.62l-53.19-27.72l21.11-10.44L1356.57,821.62z M1299.66,790.94c0.03-0.25,0.02-0.49,0-0.73
	c-0.02-14.65-0.05-23.58-0.08-29.02c1.78-0.04,3.44-0.67,4.77-1.7l19.68,23.41l-21.42,10.59l-2.95-1.54
	C1299.66,791.62,1299.66,791.27,1299.66,790.94z M1299.66,792.75l2.17,1.13l-1.31,0.65l-0.86-0.89
	C1299.66,793.34,1299.66,793.05,1299.66,792.75z M1299.66,794.65l0.19,0.2l-0.19,0.1C1299.66,794.85,1299.66,794.75,1299.66,794.65z
	 M1299.69,819.83c-0.01-9.25-0.02-17.22-0.03-24.09l0.7-0.35l26.18,27.24L1299.69,819.83z M1356.49,825.75l-28.86-3.01l-26.6-27.68
	l1.57-0.77l54.81,28.57L1356.49,825.75z M1364.59,826.59l-3.22-0.34l-2.01-2.39L1364.59,826.59z M1360.38,826.15l-3.17-0.33
	l0.79-2.51L1360.38,826.15z M1357.71,821.9l-32.58-38.76l53.06-26.23L1357.71,821.9z M1378.57,755.69l-71.05-2.68
	c0-0.56-0.06-1.1-0.17-1.63l78.92-20.11L1378.57,755.69z M1387.06,731.07l36.25-9.24l3.53,10.24l-47.5,23.48L1387.06,731.07z
	 M1401.51,757.43c0.02-0.11,0.05-0.22,0.06-0.33c0.18-2.22-1.48-4.16-3.7-4.33c-2.15-0.17-4.03,1.38-4.3,3.5l-13.06-0.49
	l46.56-23.02l11.66,33.78L1401.51,757.43z M1427.7,732.44l40.84-20.19c0.77,1.41,1.9,2.59,3.28,3.42l-28.59,51.96l-3.69-0.9
	L1427.7,732.44z M1439.81,767.51l3.07,0.75l-1.73,3.14L1439.81,767.51z M1467.15,823.64l-7.63,0.98l-18.06-52.32l2.12-3.86
	l32.58,7.97c-0.01,6.51-0.01,13.61-0.02,21.4L1467.15,823.64z M1508.99,818.28l-41.06,5.26l8.88-25.5
	c0.01-7.82,0.01-14.95,0.01-21.48l8.59,2.1c-0.22,1.12-0.18,2.31,0.17,3.49c1.15,3.89,5.24,6.1,9.13,4.95
	c0.65-0.19,1.25-0.48,1.8-0.82l13.66,19c-1.8,1.46-2.64,3.91-1.93,6.26c0.43,1.45,1.37,2.61,2.57,3.35L1508.99,818.28z
	 M1509.85,818.17l1.58-2.94c1.26,0.58,2.73,0.73,4.16,0.31c2.4-0.71,4.01-2.81,4.21-5.17l36.33,0.92c0,0.31,0.01,0.62,0.04,0.94
	L1509.85,818.17z M1556.83,807.4c-0.39,1.01-0.62,2.08-0.68,3.19l-36.34-0.92c-0.02-0.49-0.09-0.98-0.23-1.47
	c-0.19-0.63-0.48-1.21-0.84-1.72l12.34-9.84L1556.83,807.4z"/>
</symbol>

<use xlink:href="#artwork00"
     x="0" y="0" width="100%" height="100%"/>
<use xlink:href="#artwork01"
     x="-5%" y="-50%" width="150%" height="150%"/>
<use xlink:href="#artwork02"
     x="0%" y="-0%" width="100%" height="100%"/>
</svg>
